<?xml version="1.0" standalone="no"?>
<!DOCTYPE svg PUBLIC "-//W3C//DTD SVG 1.1//EN" "http://www.w3.org/Graphics/SVG/1.1/DTD/svg11.dtd" >
<svg xmlns="http://www.w3.org/2000/svg">
<metadata></metadata>
<defs>
<font id="brandon_textbold" horiz-adv-x="1228" >
<font-face units-per-em="2048" ascent="1434" descent="-614" />
<missing-glyph horiz-adv-x="490" />
<glyph unicode="&#xfb01;" horiz-adv-x="1238" d="M66 762v140q0 20 12 32t32 12h98v98q0 188 106 299t300 111q180 0 362 -100q20 -12 22 -40q0 -12 -6 -22l-58 -124q-12 -26 -40 -28q-20 0 -32 8q-132 72 -246 72q-88 0 -120 -41t-32 -127v-106h604q18 0 31 -12t13 -32v-856q0 -18 -13 -32t-31 -14h-166q-20 0 -33 12 t-13 34v670h-392v-670q0 -20 -11 -31t-21 -13t-34 -2h-144q-18 0 -32 14t-14 32v670h-98q-20 0 -32 15t-12 31z" />
<glyph unicode="&#xfb02;" horiz-adv-x="1256" d="M64 758v142q0 20 13 33t31 13h102v82q0 196 116 311t306 115q96 0 178 -37t132 -89l26 62q16 44 56 44h56q18 0 31 -15t13 -31v-1342q0 -18 -13 -32t-31 -14h-166q-16 0 -31 13t-15 33v1034q-20 48 -82 94t-138 46q-90 0 -136 -51t-46 -141v-82h178q18 0 31 -12t13 -32 v-142q0 -16 -13 -30t-31 -14h-178v-670q0 -18 -13 -32t-31 -14h-168q-18 0 -31 14t-13 32v670h-102q-20 0 -32 13t-12 29z" />
<glyph unicode="&#xfb03;" horiz-adv-x="1884" d="M64 762v140q0 20 12 32t32 12h102v40q0 188 123 318t311 130q172 0 300 -94q106 114 298 114q104 0 211 -33t169 -67q20 -12 20 -40q0 -12 -6 -22l-52 -126q-12 -26 -42 -28q-16 0 -30 8q-136 74 -250 74q-90 0 -122 -41t-32 -127v-106h604q18 0 32 -12t14 -32v-856 q0 -18 -14 -32t-32 -14h-166q-20 0 -32 12t-12 34v670h-392v-664q0 -32 -13 -42t-45 -10h-154q-18 0 -32 13t-14 33v670h-386v-670q0 -18 -13 -32t-31 -14h-166q-18 0 -32 13t-14 33v670h-102q-20 0 -32 15t-12 31zM466 946h386v78q0 78 8 110q-28 28 -82 47t-118 19 q-100 0 -147 -59t-47 -155v-40z" />
<glyph unicode="&#xfb04;" horiz-adv-x="1898" d="M64 762v140q0 20 12 32t32 12h102v40q0 122 55 224t154 163t225 61q74 0 137 -18t94 -35t69 -45q52 58 136 88t164 30q116 0 202 -35t138 -91l26 62q16 44 56 44h54q18 0 32 -15t14 -31v-1342q0 -18 -14 -32t-32 -14h-166q-16 0 -30 13t-14 33v1034q-20 48 -83 94 t-139 46q-90 0 -135 -51t-45 -141v-82h176q18 0 32 -12t14 -32v-142q0 -16 -14 -30t-32 -14h-176v-670q0 -18 -13 -32t-33 -14h-164q-18 0 -32 13t-14 33v670h-386v-670q0 -18 -13 -32t-31 -14h-166q-18 0 -32 13t-14 33v670h-102q-20 0 -32 15t-12 31zM466 946h386v78 q0 78 8 110q-70 66 -200 66q-100 0 -147 -59t-47 -155v-40z" />
<glyph horiz-adv-x="2048" />
<glyph horiz-adv-x="2048" />
<glyph unicode="&#xd;" horiz-adv-x="2048" />
<glyph unicode=" "  horiz-adv-x="490" />
<glyph unicode="&#x09;" horiz-adv-x="490" />
<glyph unicode="&#xa0;" horiz-adv-x="490" />
<glyph unicode="!" horiz-adv-x="544" d="M104 148q0 70 49 120t117 50q70 0 120 -50t50 -120t-50 -119t-120 -49q-68 0 -117 49t-49 119zM120 1162v232q0 16 12 28t28 12h226q16 0 27 -12t11 -28v-228l-80 -576q-2 -12 -13 -22t-25 -10h-66q-12 0 -25 10t-15 22z" />
<glyph unicode="&#x22;" horiz-adv-x="760" d="M104 1064v330q0 16 11 28t29 12h164q16 0 27 -10t11 -28q0 -10 -2 -14l-84 -326q-4 -12 -15 -21t-21 -9h-80q-16 0 -28 11t-12 27zM454 1064v330q0 16 12 28t28 12h164q16 0 27 -10t11 -28q0 -10 -2 -14l-84 -326q-4 -12 -15 -21t-21 -9h-80q-16 0 -28 11t-12 27z" />
<glyph unicode="#" horiz-adv-x="1172" d="M102 424v28q0 16 11 28t29 12h160l46 336h-148q-16 0 -27 12t-11 26v28q0 16 11 28t27 12h162l66 466q2 12 12 23t24 11h30q16 0 27 -14t9 -32l-62 -454h324l68 466q2 12 13 23t27 11h24q18 0 30 -14t8 -32l-64 -454h130q16 0 28 -12t12 -28v-28q0 -16 -12 -27t-28 -11 h-146l-46 -336h132q16 0 28 -12t12 -28v-28q0 -16 -12 -27t-28 -11h-148l-46 -354q-2 -14 -13 -23t-25 -9h-28q-18 0 -29 13t-9 33l44 340h-324l-48 -354q0 -12 -12 -22t-26 -10h-26q-20 0 -31 14t-7 32l46 340h-144q-16 0 -28 12t-12 26zM406 492h326l44 336h-324z" />
<glyph unicode="$" d="M148 174q0 8 10 26l80 124q12 20 32 20q18 0 50 -24q46 -36 109 -68t129 -44v400q-48 18 -84 35t-81 41t-77 49t-64 61t-54 74t-34 89t-12 105q0 156 102 265t304 125v66q0 16 12 27t26 11h26q16 0 28 -11t12 -27v-68q82 -6 167 -36t124 -52t69 -46q20 -12 20 -38 q0 -16 -8 -28l-82 -120q-16 -22 -36 -22q-12 0 -22 6q-132 90 -232 110v-374q54 -20 94 -42t94 -53t92 -65t73 -79t54 -103t19 -122q0 -172 -112 -282t-314 -122v-214q0 -16 -12 -26t-30 -10q-64 0 -62 36v214q-78 6 -148 26t-119 47t-76 46t-47 39t-20 34zM402 1074 q0 -58 37 -98t119 -86v334q-74 -8 -115 -49t-41 -101zM662 204q74 8 116 47t42 105q0 126 -158 210v-362z" />
<glyph unicode="%" horiz-adv-x="1418" d="M96 1177q0 115 81 196t195 81t196 -81t82 -196t-82 -197q-80 -80 -196 -78q-114 0 -195 80t-81 195zM260 36q0 12 4 20l702 1358q10 20 36 20h102q16 0 27 -10t11 -28q0 -12 -4 -18l-706 -1358q-10 -20 -34 -20h-98q-16 0 -28 10t-12 26zM272 1178q0 -40 30 -70t70 -30 t70 29t30 70t-29 70t-71 29q-40 0 -70 -30t-30 -68zM770 256q0 114 82 195t194 81q114 0 197 -81t83 -195t-81 -195t-199 -81q-114 0 -195 81t-81 195zM946 256q0 -40 30 -70t70 -30t70 30t30 70t-31 69t-69 29q-40 0 -70 -29t-30 -69z" />
<glyph unicode="&#x26;" horiz-adv-x="1388" d="M106 364q0 44 8 85t24 75t33 62t42 54t43 44t43 36t39 26t32 20l20 10v4l-44 48q-46 50 -71 84t-48 91t-21 119q0 60 26 118t71 106t121 78t170 30q168 0 277 -96t109 -238q0 -50 -16 -98t-38 -83t-54 -70t-57 -55t-51 -40t-32 -26l234 -238q50 102 74 228q4 28 14 41 t30 13q4 0 24 -4l112 -32q38 -10 40 -48q0 -16 -4 -32q-36 -158 -128 -326l182 -172q26 -26 28 -42q0 -20 -32 -52l-84 -86q-18 -18 -40 -18q-24 0 -50 24l-146 150q-18 -20 -49 -46t-87 -57t-138 -51t-174 -20q-190 0 -311 112t-121 272zM350 392q0 -84 63 -139t153 -55 q158 0 264 122l-306 324l-16 -12l-24 -15t-28 -19t-31 -27t-28 -34t-25 -41t-15 -48t-7 -56zM434 1122q0 -24 6 -47t25 -49t31 -40t44 -48l46 -46l16 10q14 10 23 15t28 18t31 24t29 30t25 35t15 39t7 45q0 62 -48 108t-126 46q-70 0 -111 -41t-41 -99z" />
<glyph unicode="'" horiz-adv-x="410" d="M104 1064v330q0 16 11 28t29 12h164q16 0 27 -10t11 -28q0 -10 -2 -14l-84 -326q-4 -12 -15 -21t-21 -9h-80q-16 0 -28 11t-12 27z" />
<glyph unicode="(" horiz-adv-x="694" d="M84 646q0 136 15 247t44 192t68 144t82 103t96 67t101 39t102 14h4q16 0 25 -9t9 -21l6 -136q0 -28 -24 -36q-148 -36 -212 -192t-64 -412q0 -266 65 -415t211 -187q12 -4 19 -16t5 -24l-6 -134q-2 -32 -38 -32q-78 4 -145 28t-135 79t-116 141t-80 229t-32 331z" />
<glyph unicode=")" horiz-adv-x="694" d="M58 4q-2 12 5 24t19 16q148 38 212 187t64 414t-64 415t-212 190q-12 2 -19 13t-5 23l6 136q0 12 9 21t25 9h4q54 -4 103 -15t100 -38t95 -67t84 -103t67 -144t43 -194t16 -245q0 -184 -31 -329t-80 -231t-118 -141t-135 -78t-144 -29q-36 0 -38 32z" />
<glyph unicode="*" horiz-adv-x="884" d="M134 960q0 20 16 34l170 102l-170 102q-16 12 -16 34q0 16 4 22q4 10 38 54q8 12 24 16t28 -8l146 -102l-4 180q0 16 12 28t28 12h66q16 0 27 -12t11 -28l-4 -180l148 104q10 8 28 5t24 -15l36 -54q8 -16 8 -26q0 -18 -18 -30l-170 -102l170 -104q18 -12 18 -34 q0 -12 -6 -20l-40 -56q-10 -16 -26 -17t-24 5l-148 102l4 -176q0 -16 -11 -27t-27 -11h-66q-16 0 -28 12t-12 26l4 178l-146 -102q-12 -8 -29 -5t-25 15l-34 56q-6 8 -6 22z" />
<glyph unicode="+" d="M172 652v114q0 16 12 27t26 11h308v310q0 16 11 26t29 10h114q16 0 27 -10t11 -26v-310h310q16 0 26 -11t10 -27v-114q0 -16 -10 -28t-26 -12h-310v-304q0 -16 -11 -27t-27 -11h-114q-16 0 -28 11t-12 27v304h-308q-16 0 -27 11t-11 29z" />
<glyph unicode="," horiz-adv-x="546" d="M82 184q0 70 49 118t127 48q88 0 146 -72t58 -198q0 -232 -162 -448q-12 -12 -26 -12q-8 0 -22 10l-64 44q-22 22 2 52q50 62 83 136t33 142q0 24 -6 44q-32 -22 -76 -24q-66 0 -104 45t-38 115z" />
<glyph unicode="-" horiz-adv-x="758" d="M112 430v138q0 16 12 27t28 11h456q16 0 28 -11t12 -27v-138q0 -16 -12 -26t-28 -10h-456q-16 0 -28 10t-12 26z" />
<glyph unicode="." horiz-adv-x="550" d="M80 172q0 80 57 138t137 58t139 -58t59 -138q0 -78 -59 -136t-139 -58t-137 58t-57 136z" />
<glyph unicode="/" horiz-adv-x="846" d="M110 36q0 12 2 16l402 1354q4 12 14 20t22 8h148q18 0 29 -10t11 -28q0 -10 -2 -14l-400 -1356q-4 -10 -14 -18t-22 -8h-150q-16 0 -28 10t-12 26z" />
<glyph unicode="0" horiz-adv-x="1312" d="M124 716q0 348 141 543t391 195q254 0 393 -195t139 -543t-139 -542t-393 -194q-250 0 -391 194t-141 542zM391 717q-1 -233 69 -365q72 -132 196 -130q122 0 194 131t72 364t-72 363t-194 130t-193 -130t-72 -363z" />
<glyph unicode="1" horiz-adv-x="762" d="M70 1140q-4 26 20 46l262 220q28 26 72 28h106q16 0 28 -12t12 -28v-1354q0 -16 -12 -28t-28 -12h-180q-18 0 -29 12t-11 28v1010l-186 -40q-16 -4 -29 5t-13 23z" />
<glyph unicode="2" horiz-adv-x="1132" d="M86 40v22q0 24 16 46q180 222 530 682q106 132 108 234q0 78 -59 134t-165 56q-68 0 -129 -37t-107 -85q-14 -14 -28 -14t-28 14l-104 100q-10 10 -11 25t9 31q68 86 184 146t232 60q220 0 346 -121t126 -299q0 -50 -9 -91t-33 -88t-41 -74t-59 -87q-40 -58 -96 -131 t-151 -193t-111 -140v-4h450q16 0 29 -13t13 -27v-146q0 -16 -13 -28t-29 -12h-832q-16 0 -27 12t-11 28z" />
<glyph unicode="3" horiz-adv-x="1142" d="M90 190q0 18 10 30l108 104q28 24 54 0q54 -54 113 -85t147 -31q96 0 160 55t64 137q0 102 -75 159t-217 57h-118q-16 0 -28 11t-12 31v132q0 44 40 44h118q126 0 194 54t68 138t-61 138t-143 54q-132 0 -212 -100q-14 -14 -30 -14t-28 12l-102 96q-12 12 -13 27t13 29 q58 74 158 130t236 56q122 0 225 -47t165 -135t62 -204q0 -122 -65 -204t-153 -122v-8q100 -38 177 -127t77 -215q0 -180 -134 -296t-352 -116q-90 0 -168 20t-131 53t-84 59t-55 54q-8 12 -8 24z" />
<glyph unicode="4" horiz-adv-x="1306" d="M60 346v134q0 40 26 70l726 882q20 22 52 22h100q16 0 29 -12t13 -28v-890h168q18 0 29 -10t11 -26v-142q0 -16 -11 -28t-29 -12h-168l2 -266q0 -16 -12 -28t-30 -12h-174q-16 0 -28 12t-12 28v266h-652q-16 0 -28 13t-12 27zM342 518h418v510h-4l-414 -506v-4z" />
<glyph unicode="5" horiz-adv-x="1156" d="M118 194q0 10 22 32l104 104q8 8 19 11t31 -9q30 -24 52 -40t58 -37t77 -32t87 -11q106 0 175 74t69 177t-68 169t-186 66h-326q-30 0 -48 23t-18 51v622q0 16 11 28t29 12h666q16 0 29 -12t13 -28v-142q0 -16 -13 -29t-29 -13h-468v-280h182q222 0 353 -129t131 -339 q0 -200 -148 -341t-362 -141q-82 0 -155 18t-124 47t-83 56t-54 53q-24 28 -26 40z" />
<glyph unicode="6" horiz-adv-x="1188" d="M112 562q0 126 30 241t77 199t114 157t130 123t135 91t121 61t97 36q6 2 18 2q32 0 40 -30l50 -126q4 -12 4 -18q0 -32 -44 -42q-36 -12 -80 -31t-106 -55t-114 -79t-98 -104t-64 -127q30 20 101 40t139 20q82 0 156 -30t136 -85t100 -144t38 -199q0 -98 -38 -188 t-103 -153t-153 -102t-184 -39q-118 0 -215 46t-159 126t-95 185t-33 225zM366 530q0 -58 16 -112t44 -100t76 -74t110 -28q102 0 172 70t70 180q0 106 -71 177t-173 71q-94 0 -158 -58t-86 -126z" />
<glyph unicode="7" horiz-adv-x="1058" d="M86 1248v146q0 16 12 28t26 12h880q16 0 28 -12t12 -27t-8 -31l-620 -1306q-26 -58 -72 -58h-158q-52 0 -50 40q0 22 10 44l534 1118v4h-556q-16 0 -27 12t-11 30z" />
<glyph unicode="8" horiz-adv-x="1242" d="M120 382q0 86 41 161t96 118t119 75v8q-86 36 -151 123t-65 201q0 172 131 279t325 107q200 0 334 -106t134 -280q0 -110 -67 -196t-151 -126v-10q106 -46 181 -136t75 -218q0 -176 -138 -289t-368 -113q-222 0 -359 113t-137 289zM402 390q0 -88 61 -142t159 -54t159 55 t61 141q0 74 -59 137t-161 85q-102 -24 -161 -86t-59 -136zM430 1056q0 -150 192 -198q94 22 143 76t49 122q0 78 -55 129t-143 51q-82 0 -134 -51t-52 -129z" />
<glyph unicode="9" horiz-adv-x="1188" d="M98 970q0 98 39 189t103 154t152 102t184 39q118 0 215 -46t159 -127t95 -185t33 -224q0 -126 -31 -241t-78 -199t-113 -158t-129 -123t-135 -90t-121 -62t-97 -35q-16 -4 -20 -4q-28 0 -38 32l-50 124q-4 12 -4 20q0 28 44 42q26 8 55 19t78 35t94 56t92 72t85 95 t58 117q-32 -20 -103 -40t-137 -20q-82 0 -158 31t-137 86t-98 144t-37 197zM336 966q0 -102 71 -175t173 -73q94 0 158 59t86 127q0 58 -15 111t-43 99t-78 74t-110 28q-98 0 -170 -74t-72 -176z" />
<glyph unicode=":" horiz-adv-x="578" d="M118 148q0 72 50 121t120 49q74 0 123 -49t49 -121q0 -70 -50 -120t-122 -50q-70 0 -120 50t-50 120zM118 798q0 70 50 119t120 49q74 0 123 -49t49 -119q0 -72 -49 -121t-123 -49q-70 0 -120 50t-50 120z" />
<glyph unicode=";" horiz-adv-x="554" d="M106 144q0 66 45 107t115 41q78 0 131 -64t53 -178q0 -206 -146 -404q-12 -10 -24 -10l-20 8l-58 40q-20 20 2 48q102 134 104 250q0 14 -4 38q-30 -20 -70 -20q-60 0 -94 41t-34 103zM112 798q0 70 49 119t121 49q70 0 119 -49t49 -119q0 -72 -49 -121t-119 -49 q-72 0 -121 50t-49 120z" />
<glyph unicode="&#x3c;" d="M190 464v12q0 22 20 34l712 434q8 6 22 6t24 -10t10 -28v-144q0 -18 -18 -32l-440 -262l440 -254q18 -12 18 -34v-142q0 -16 -10 -28t-24 -12q-12 0 -22 6l-712 420q-20 12 -20 34z" />
<glyph unicode="=" d="M242 300v116q0 16 11 27t27 11h668q16 0 28 -12t12 -26v-116q0 -16 -12 -28t-28 -12h-668q-16 0 -27 11t-11 29zM242 732v114q0 16 11 27t27 11h668q16 0 28 -12t12 -26v-114q0 -16 -12 -28t-28 -12h-668q-16 0 -27 12t-11 28z" />
<glyph unicode="&#x3e;" d="M250 44v142q0 20 18 34l438 254l-438 262q-18 12 -18 32v144q0 16 10 27t24 11q12 0 24 -6l710 -434q20 -12 20 -34v-12q0 -22 -20 -34l-710 -420q-8 -6 -24 -6q-14 0 -24 12t-10 28z" />
<glyph unicode="?" horiz-adv-x="1018" d="M94 1246q0 16 12 28q54 72 165 126t237 54q164 0 281 -98t117 -246q0 -70 -33 -129t-78 -100t-90 -76t-78 -70t-33 -67v-68q0 -20 -10 -31t-32 -11h-164q-16 0 -28 11t-12 27v86q0 46 21 88t53 73t69 64t68 60t52 60t21 67q0 58 -44 97t-120 39q-44 0 -82 -13t-58 -29 t-45 -37t-35 -27q-24 -16 -46 2l-96 94q-12 12 -12 26zM302 148q0 70 49 120t117 50q70 0 120 -50t50 -120t-50 -119t-120 -49t-118 49t-48 119z" />
<glyph unicode="@" horiz-adv-x="2078" d="M116 456q0 218 71 402t198 316t309 206t398 74q208 0 377 -65t282 -181t173 -275t60 -343q0 -102 -31 -200t-89 -176t-147 -126t-197 -48q-184 0 -244 160h-16q-34 -70 -104 -115t-162 -45q-160 0 -266 127t-106 307q0 184 107 306t271 122q136 0 248 -122q4 12 10 32 t9 26t9 17t14 14t22 7t32 4h34q16 0 28 -11t12 -27v-376q0 -126 33 -171t93 -45q98 0 155 94t57 236q0 144 -42 263t-124 209t-212 141t-294 51q-340 0 -542 -212t-202 -576q0 -246 135 -437t359 -283q36 -16 22 -50l-50 -128q-8 -24 -30 -24q-10 0 -14 2q-282 102 -464 353 t-182 567zM836 472q0 -90 53 -151t125 -61q90 0 130 63t44 161v76q-8 46 -59 90t-117 44q-74 0 -123 -57t-53 -149v-16z" />
<glyph unicode="A" horiz-adv-x="1368" d="M0 34q0 6 4 20l638 1378q12 22 34 22h20q24 0 36 -22l630 -1378q4 -12 4 -20q0 -16 -10 -25t-28 -9h-180q-22 0 -34 9t-24 31l-100 222h-614l-100 -222q-16 -40 -58 -40h-180q-18 0 -28 10t-10 24zM478 490h410l-204 450h-6z" />
<glyph unicode="B" horiz-adv-x="1260" d="M174 38v1356q0 16 11 28t27 12h470q184 0 308 -109t124 -271q0 -108 -59 -190t-145 -128v-12q50 -16 90 -42t77 -65t58 -97t21 -124q0 -172 -129 -284t-319 -112h-496q-16 0 -27 12t-11 26zM438 242h252q78 0 129 53t51 133q0 78 -52 128t-128 50h-252v-364zM438 832h224 q78 0 125 53t47 131t-47 126t-125 48h-224v-358z" />
<glyph unicode="C" horiz-adv-x="1408" d="M90 715q0 203 98 373t269 268t373 98q152 0 269 -47t227 -143q14 -12 14 -29t-12 -29l-126 -128q-24 -24 -52 0q-62 56 -145 88t-169 32q-192 0 -325 -140t-133 -338q0 -126 60 -235t165 -173t235 -64q168 0 312 116q28 22 52 0l128 -130q10 -10 10 -26q0 -18 -12 -30 q-204 -198 -498 -198q-200 0 -372 98t-270 266t-98 371z" />
<glyph unicode="D" horiz-adv-x="1504" d="M174 38v1356q0 16 11 28t25 12h486q146 0 279 -58t229 -153t154 -227t58 -278q0 -196 -98 -361t-263 -261t-359 -96h-486q-16 0 -26 11t-10 27zM438 250h234q200 0 330 130t130 338q0 206 -130 337t-330 131h-234v-936z" />
<glyph unicode="E" horiz-adv-x="1178" d="M174 38v1356q0 16 11 28t27 12h834q16 0 28 -12t12 -28v-168q0 -16 -12 -27t-28 -11h-606v-336h506q16 0 28 -12t12 -26v-170q0 -16 -12 -28t-28 -12h-506v-358h606q16 0 28 -12t12 -28v-168q0 -16 -12 -27t-28 -11h-834q-16 0 -27 11t-11 27z" />
<glyph unicode="F" horiz-adv-x="1140" d="M174 38v1356q0 16 11 28t27 12h834q16 0 28 -12t12 -28v-168q0 -16 -12 -27t-28 -11h-606v-386h506q16 0 28 -12t12 -26v-168q0 -16 -12 -27t-28 -11h-506v-520q0 -16 -11 -27t-27 -11h-190q-16 0 -27 11t-11 27z" />
<glyph unicode="G" horiz-adv-x="1470" d="M90 715q0 203 98 373t268 268t370 98q136 0 264 -49t236 -141q14 -14 14 -32q0 -14 -12 -26l-128 -132q-24 -24 -54 0q-136 118 -308 118q-124 0 -231 -66t-168 -174t-61 -235t61 -234t167 -171t234 -64q114 0 244 52v174h-164q-16 0 -28 11t-12 25v162q0 16 12 27t28 11 h392q16 0 27 -11t11 -27v-524q0 -20 -16 -34q-88 -56 -230 -94t-278 -38q-200 0 -370 97t-268 265t-98 371z" />
<glyph unicode="H" horiz-adv-x="1550" d="M174 38v1356q0 16 11 28t27 12h192q16 0 27 -12t11 -28v-542h668v542q0 16 11 28t27 12h190q16 0 27 -12t11 -28v-1356q0 -16 -12 -27t-26 -11h-190q-16 0 -27 12t-11 26v566h-668v-566q0 -16 -11 -27t-27 -11h-192q-16 0 -27 11t-11 27z" />
<glyph unicode="I" horiz-adv-x="616" d="M174 38v1356q0 16 11 28t27 12h192q16 0 27 -12t11 -28v-1356q0 -16 -12 -27t-26 -11h-192q-16 0 -27 11t-11 27z" />
<glyph unicode="J" horiz-adv-x="932" d="M22 152q0 18 10 28l108 108q14 14 30 16q14 0 30 -18q60 -64 132 -64h4q70 0 117 44t47 142v986q0 16 11 28t27 12h194q16 0 27 -12t11 -28v-986q0 -140 -58 -237t-154 -144t-218 -47q-62 0 -117 16t-94 43t-62 49t-39 42q-6 6 -6 22z" />
<glyph unicode="K" horiz-adv-x="1314" d="M174 50v1334q0 20 13 35t37 15h180q20 0 34 -15t14 -35v-552l516 582q16 20 40 20h204q20 0 33 -12t13 -32q0 -16 -12 -30l-536 -602l574 -686q8 -12 8 -26q0 -18 -12 -32t-32 -14h-224q-28 0 -36 14l-536 660v-624q0 -20 -14 -35t-34 -15h-180q-20 0 -35 15t-15 35z" />
<glyph unicode="L" horiz-adv-x="1034" d="M174 38v1356q0 16 11 28t27 12h190q16 0 27 -12t11 -28v-1148h522q16 0 28 -12t12 -28v-168q0 -16 -12 -27t-28 -11h-750q-16 0 -27 11t-11 27z" />
<glyph unicode="M" horiz-adv-x="1794" d="M96 48l244 1376q4 30 36 30h34q24 0 34 -20l450 -968h8l450 968q10 20 34 20h34q32 0 36 -30l242 -1376q0 -2 1 -7t1 -7q0 -16 -10 -25t-30 -9h-186q-12 0 -24 10t-14 20l-122 776h-6l-358 -804q-8 -22 -34 -22h-38q-24 0 -34 22l-362 804h-6l-120 -776q-2 -12 -13 -21 t-23 -9h-184q-20 0 -32 14q-9 10 -9 24q0 5 1 10z" />
<glyph unicode="N" horiz-adv-x="1558" d="M174 38v1380q0 16 11 26t27 10h32q20 0 34 -14l836 -892h4v846q0 16 11 28t29 12h188q16 0 27 -12t11 -28v-1378q0 -16 -12 -26t-26 -10h-30q-20 0 -34 14l-840 926h-4v-882q0 -16 -11 -27t-27 -11h-188q-16 0 -27 11t-11 27z" />
<glyph unicode="O" horiz-adv-x="1652" d="M90 715q0 203 98 373t266 268t372 98q202 0 371 -98t267 -268t98 -373t-98 -371t-267 -266t-371 -98t-371 98t-267 266t-98 371zM356 714q0 -192 137 -330t333 -138q126 0 235 63t172 171t63 235t-63 236t-172 173t-235 64t-234 -64t-172 -174t-64 -236z" />
<glyph unicode="P" horiz-adv-x="1206" d="M174 38v1356q0 16 11 28t27 12h482q188 0 324 -133t136 -321q0 -190 -135 -325t-323 -135h-256v-482q0 -16 -11 -27t-27 -11h-190q-16 0 -27 11t-11 27zM440 770h246q86 0 144 61t58 153q0 84 -58 141t-144 57h-246v-412z" />
<glyph unicode="Q" horiz-adv-x="1652" d="M90 715q0 203 98 373t266 268t372 98q202 0 371 -98t267 -269t98 -373q0 -204 -109 -379t-289 -275l256 -404q8 -16 8 -24q0 -16 -12 -27t-30 -11h-216q-8 0 -19 6t-15 14l-218 372q-50 -6 -92 -6q-200 0 -370 98t-268 266t-98 371zM356 714q0 -192 137 -330t333 -138 q126 0 235 63t172 171t63 235t-63 236t-172 173t-235 64t-234 -64t-172 -174t-64 -236z" />
<glyph unicode="R" horiz-adv-x="1350" d="M174 38v1356q0 16 11 28t27 12h586q184 0 316 -129t132 -311q0 -140 -83 -250t-221 -164l280 -520q6 -8 6 -22q0 -16 -10 -27t-30 -11h-216q-24 0 -32 18l-272 544h-228v-524q0 -16 -11 -27t-27 -11h-190q-16 0 -27 11t-11 27zM442 780h334q82 0 142 62t60 148 q0 82 -60 140t-142 58h-334v-408z" />
<glyph unicode="S" horiz-adv-x="1116" d="M94 170q0 10 10 30l74 128q16 24 42 24q16 0 28 -10q54 -40 90 -63t97 -43t123 -20q80 0 133 46t53 110q0 76 -64 135t-196 111q-64 24 -115 52t-104 68t-87 85t-57 107t-23 130q0 72 27 139t80 126t145 94t210 35q74 0 144 -16t124 -42t86 -44t54 -36q20 -12 22 -40 q0 -16 -10 -26l-76 -118q-20 -30 -50 -30q-12 0 -22 6q-66 40 -93 56t-84 36t-109 20q-84 0 -132 -41t-48 -101q0 -70 58 -124t184 -106q70 -28 122 -53t114 -68t101 -88t65 -112t26 -141q0 -164 -131 -285t-339 -121q-266 0 -452 160q-20 16 -20 30z" />
<glyph unicode="T" horiz-adv-x="1078" d="M54 1226v168q0 16 11 28t27 12h896q16 0 27 -12t11 -28v-168q0 -16 -11 -27t-27 -11h-314v-1150q0 -16 -11 -27t-29 -11h-190q-16 0 -27 11t-11 27v1150h-314q-16 0 -27 12t-11 26z" />
<glyph unicode="U" horiz-adv-x="1460" d="M160 526v868q0 16 12 28t26 12h196q16 0 27 -12t11 -28v-854q0 -132 82 -213t216 -81t216 82t82 210v856q0 16 11 28t29 12h194q16 0 27 -12t11 -28v-868q0 -114 -44 -216t-120 -174t-182 -114t-224 -42q-160 0 -290 71t-205 196t-75 279z" />
<glyph unicode="V" horiz-adv-x="1360" d="M-2 1398q0 16 10 26t28 10h210q24 0 34 -22l396 -882h10l396 882q8 22 34 22h210q18 0 28 -10t10 -26q0 -6 -4 -18l-636 -1378q-12 -22 -34 -22h-20q-24 0 -36 22l-632 1378q-4 12 -4 18z" />
<glyph unicode="W" horiz-adv-x="1812" d="M44 1398q0 16 10 26t28 10h188q12 0 23 -8t15 -22l212 -816h8l326 844q8 22 34 22h38q28 0 34 -22l328 -844h8l210 816q4 12 14 21t22 9h188q18 0 29 -10t11 -26q0 -10 -2 -14l-388 -1376q-4 -12 -14 -20t-22 -8h-34q-28 0 -34 22l-366 928h-10l-364 -928 q-12 -22 -34 -22h-34q-12 0 -22 8t-14 20l-386 1376q-2 4 -2 14z" />
<glyph unicode="X" horiz-adv-x="1272" d="M46 36q0 14 6 22l426 678l-410 640q-6 8 -6 20q0 14 12 26t28 12h238q18 0 32 -18l258 -436h8l266 436q8 18 32 18h238q16 0 28 -11t12 -27q0 -12 -6 -20l-412 -640l426 -678q6 -12 6 -24q0 -16 -11 -25t-29 -9h-222q-24 0 -34 18l-294 470h-8l-286 -470q-14 -18 -34 -18 h-222q-20 0 -31 11t-11 25z" />
<glyph unicode="Y" horiz-adv-x="1214" d="M0 1396q0 16 10 27t28 11h210q18 0 32 -18l328 -472l328 472q14 18 32 18h212q18 0 28 -10t10 -28q0 -12 -6 -22l-472 -682v-654q0 -16 -12 -27t-28 -11h-188q-16 0 -27 11t-11 27v652l-468 684q-6 8 -6 22z" />
<glyph unicode="Z" horiz-adv-x="1100" d="M52 38q0 36 14 64l596 1076v8h-512q-16 0 -28 11t-12 27v170q0 16 13 28t27 12h856q16 0 27 -12t11 -28q0 -26 -18 -58l-584 -1084v-4h522q16 0 28 -11t12 -29v-170q0 -16 -12 -27t-28 -11h-874q-16 0 -27 12t-11 26z" />
<glyph unicode="[" horiz-adv-x="722" d="M134 -448v1842q0 16 11 28t27 12h462q16 0 28 -12t12 -28v-126q0 -16 -11 -28t-29 -12h-266v-1510h266q16 0 28 -11t12 -27v-128q0 -16 -11 -28t-29 -12h-462q-16 0 -27 13t-11 27z" />
<glyph unicode="\" horiz-adv-x="850" d="M108 1396q0 16 11 27t29 11h156q12 0 22 -8t14 -20l402 -1354q2 -4 2 -16q0 -16 -12 -26t-28 -10h-158q-12 0 -22 8t-14 18l-400 1356q-2 4 -2 14z" />
<glyph unicode="]" horiz-adv-x="722" d="M50 -320q0 16 11 27t27 11h266v1510h-266q-16 0 -27 12t-11 28v126q0 16 12 28t26 12h462q16 0 28 -12t12 -28v-1842q0 -16 -12 -28t-28 -12h-462q-16 0 -27 13t-11 27v128z" />
<glyph unicode="^" horiz-adv-x="1072" d="M70 824q0 12 6 22l426 596q12 20 34 20h10q22 0 36 -20l416 -596q6 -8 6 -23t-10 -25t-30 -10h-140q-18 0 -34 18l-252 348l-256 -348q-14 -18 -32 -18h-142q-16 0 -27 10t-11 26z" />
<glyph unicode="_" horiz-adv-x="1234" d="M232 -60q0 16 11 28t27 12h694q16 0 28 -12t12 -28v-80q0 -16 -12 -26t-28 -10h-694q-16 0 -27 10t-11 26v80z" />
<glyph unicode="`" horiz-adv-x="618" d="M102 1270q0 12 6 24l58 104q8 14 26 16q16 0 28 -10l336 -198q16 -8 16 -24q0 -6 -4 -14l-38 -74q-8 -18 -26 -18q-8 0 -24 6l-360 158q-18 12 -18 30z" />
<glyph unicode="a" horiz-adv-x="986" d="M66 302q0 132 100 214t276 82q94 0 182 -26v18q0 82 -30 121t-100 39q-62 0 -143 -10t-123 -26q-6 -2 -16 -2q-32 0 -38 44l-20 106q-2 6 -2 16q0 28 32 42q28 12 127 29t197 17q86 0 149 -18t103 -51t64 -86t32 -114t8 -141v-510q0 -18 -13 -32t-31 -14h-70 q-24 0 -42 32l-26 64q-122 -118 -296 -118q-144 0 -232 87t-88 237zM312 302q0 -62 35 -98t101 -36q58 0 108 35t62 65v140q-66 28 -138 28q-82 0 -125 -35t-43 -99z" />
<glyph unicode="b" horiz-adv-x="1152" d="M132 46v1342q0 16 14 31t30 15h166q18 0 32 -15t14 -31v-462q36 16 100 28t130 12q204 0 332 -141t128 -351q0 -204 -127 -350t-319 -146q-98 0 -184 42t-130 98l-24 -72q-16 -46 -46 -46h-72q-16 0 -30 14t-14 32zM388 342q20 -50 72 -91t136 -41q104 0 164 77t60 186 t-63 185t-173 76q-58 0 -113 -17t-83 -37v-338z" />
<glyph unicode="c" horiz-adv-x="1006" d="M74 474q0 138 66 250t182 177t254 65q202 0 352 -160q12 -12 12 -26q0 -18 -22 -40l-86 -94q-12 -12 -26 -14q-18 0 -36 20q-86 82 -188 82q-110 0 -180 -75t-70 -186t70 -187t178 -76q50 0 91 18t62 37t47 51q12 14 36 14q16 0 24 -8l92 -78q24 -20 24 -44q0 -8 -8 -24 q-126 -198 -374 -198q-138 0 -252 64t-181 178t-67 254z" />
<glyph unicode="d" horiz-adv-x="1156" d="M74 474q0 102 34 193t94 156t148 104t192 39q124 0 228 -38v460q0 16 14 31t32 15h164q18 0 32 -15t14 -31v-1342q0 -18 -13 -32t-33 -14h-74q-30 0 -46 46l-24 72q-46 -58 -131 -99t-179 -41q-194 0 -323 142t-129 354zM338 473q0 -109 59 -186t165 -77q82 0 135 41 t73 91v338q-28 20 -84 37t-112 17q-110 0 -173 -76t-63 -185z" />
<glyph unicode="e" horiz-adv-x="1046" d="M74 474q0 98 35 189t97 157t152 106t192 40q184 0 310 -124t126 -314q0 -32 -6 -62q0 -16 -14 -29t-30 -13h-606q2 -90 68 -155t168 -65q116 0 202 70q16 14 34 14t28 -14l80 -106q12 -16 12 -30q0 -16 -16 -32q-150 -128 -348 -128h-6q-208 0 -343 145t-135 351z M344 592h384q-4 70 -55 117t-129 47q-84 0 -138 -45t-62 -119z" />
<glyph unicode="f" horiz-adv-x="806" d="M66 762v140q0 20 12 32t32 12h98v112q0 190 99 293t285 103q86 0 161 -28t117 -64q16 -12 16 -30q0 -12 -6 -24l-72 -124q-8 -18 -34 -18q-10 0 -22 6q-26 18 -70 33t-78 15q-82 0 -111 -40t-29 -122v-112h258q20 0 33 -12t13 -32v-140q0 -16 -13 -31t-33 -15h-258v-670 q0 -18 -13 -32t-31 -14h-166q-18 0 -32 14t-14 32v670h-98q-20 0 -32 15t-12 31z" />
<glyph unicode="g" horiz-adv-x="1156" d="M74 472q0 212 129 353t323 141q94 0 179 -41t131 -99l24 76q13 44 43 44h3h74q18 0 32 -13t14 -31v-912q0 -110 -37 -200t-101 -145t-149 -84t-183 -29q-102 0 -198 35t-142 71q-12 8 -16 24t4 28l62 134q6 14 24 17t32 -5q122 -72 224 -72q114 0 169 49t55 177v26 q-102 -38 -228 -38q-102 0 -191 38t-149 104t-94 157t-34 195zM338 471q0 -107 62 -184t174 -77q58 0 113 17t83 37v338q-20 50 -73 91t-135 41q-104 0 -164 -78t-60 -185z" />
<glyph unicode="h" horiz-adv-x="1130" d="M132 46v1342q0 16 14 31t30 15h166q18 0 32 -15t14 -31v-502q92 80 240 80q382 0 384 -446v-474q0 -18 -14 -32t-32 -14h-166q-18 0 -31 13t-13 33v476q0 98 -44 155t-128 57q-78 0 -128 -45t-68 -121v-522q0 -46 -50 -46h-162q-16 0 -30 14t-14 32z" />
<glyph unicode="i" horiz-adv-x="518" d="M94 1272q0 68 46 115t116 47t117 -47t47 -115t-47 -116t-117 -48t-116 47t-46 117zM132 46v856q0 20 14 32t30 12h166q16 0 31 -12t15 -32v-856q0 -18 -14 -32t-32 -14h-166q-16 0 -30 14t-14 32z" />
<glyph unicode="j" horiz-adv-x="518" d="M-48 -332q0 28 33 47t53 33t44 39t37 60t13 79v976q0 20 14 32t30 12h166q16 0 31 -12t15 -32v-940q0 -82 -16 -150t-40 -116t-63 -87t-78 -64t-91 -47q-20 -10 -42 -10q-36 0 -48 30l-48 116q-8 24 -10 34zM94 1272q0 68 46 115t116 47t117 -47t47 -115t-47 -116 t-117 -48t-116 47t-46 117z" />
<glyph unicode="k" horiz-adv-x="1058" d="M132 46v1342q0 16 14 31t30 15h166q18 0 32 -15t14 -31v-800l324 330q32 28 60 28h192q18 0 30 -12t12 -28q0 -18 -10 -30l-376 -368l394 -440q12 -12 12 -29t-11 -28t-29 -11h-202q-28 0 -40 18l-356 426v-398q0 -18 -14 -32t-32 -14h-166q-16 0 -30 14t-14 32z" />
<glyph unicode="l" horiz-adv-x="522" d="M134 46v1342q0 16 14 31t30 15h166q16 0 31 -15t15 -31v-1342q0 -18 -15 -32t-31 -14h-166q-16 0 -30 14t-14 32z" />
<glyph unicode="m" horiz-adv-x="1694" d="M132 46v856q0 20 14 32t30 12h74q32 0 38 -26l36 -90q20 24 39 41t55 42t85 39t109 14q98 0 159 -33t123 -109q24 24 44 40t59 45t91 43t112 14q90 0 156 -22t107 -60t67 -95t35 -120t9 -141v-482q0 -18 -13 -32t-33 -14h-164q-18 0 -32 13t-14 33v488q0 198 -162 200 q-68 0 -115 -31t-63 -69q4 -50 6 -90v-498q0 -18 -15 -32t-31 -14h-168q-20 0 -33 13t-13 33v488q0 98 -34 149t-120 51q-132 0 -182 -148v-540q0 -18 -14 -32t-32 -14h-166q-16 0 -30 14t-14 32z" />
<glyph unicode="n" horiz-adv-x="1132" d="M132 46v856q0 20 14 32t30 12h78q28 0 38 -28l36 -88q16 16 28 29t41 36t60 36t78 24t97 11q378 0 380 -432v-488q0 -18 -14 -32t-32 -14h-166q-18 0 -31 13t-13 33v488q0 198 -164 200q-82 0 -133 -43t-71 -105v-540q0 -24 -14 -35t-46 -11h-152q-16 0 -30 14t-14 32z " />
<glyph unicode="o" horiz-adv-x="1114" d="M74 476q0 132 64 244t176 179t244 67t244 -67t176 -180t64 -243q0 -134 -64 -249t-177 -182t-243 -67q-132 0 -244 67t-176 182t-64 249zM312 476q0 -110 71 -188t175 -78q102 0 174 77t72 189q0 106 -72 182t-174 76t-174 -76t-72 -182z" />
<glyph unicode="p" horiz-adv-x="1158" d="M132 -442v1344q0 18 13 31t31 13h76q30 0 44 -44l26 -76q46 58 130 99t178 41q194 0 324 -141t130 -353q0 -102 -34 -194t-95 -158t-150 -104t-191 -38q-124 0 -226 38v-458q0 -16 -15 -31t-31 -15h-166q-18 0 -31 15t-13 31zM388 264q28 -20 83 -37t113 -17 q110 0 173 77t63 184t-60 185t-164 78q-82 0 -135 -41t-73 -91v-338z" />
<glyph unicode="q" horiz-adv-x="1156" d="M74 472q0 212 129 353t323 141q94 0 179 -41t131 -99l24 76q13 44 43 44h3h74q18 0 32 -13t14 -31v-1344q0 -16 -13 -31t-33 -15h-164q-16 0 -31 15t-15 31v458q-102 -38 -228 -38q-102 0 -191 38t-149 104t-94 158t-34 194zM338 471q0 -107 62 -184t174 -77q58 0 113 17 t83 37v338q-20 50 -73 91t-135 41q-104 0 -164 -78t-60 -185z" />
<glyph unicode="r" horiz-adv-x="792" d="M132 46v856q0 20 14 32t30 12h76q28 0 40 -30l36 -92q36 54 104 98t162 44q78 0 130 -18t52 -54q0 -12 -4 -20l-62 -138q-12 -24 -36 -26q-6 0 -18 4q-40 18 -88 20q-68 0 -116 -33t-64 -67v-588q0 -46 -54 -46h-158q-16 0 -30 14t-14 32z" />
<glyph unicode="s" horiz-adv-x="844" d="M78 690q0 114 88 195t252 81q178 0 280 -68q24 -14 24 -46q0 -14 -4 -20l-52 -110q-12 -22 -42 -22q-6 0 -18 4q-102 48 -188 48q-46 0 -68 -18t-22 -44q0 -28 31 -50t103 -52q54 -20 87 -36t72 -38t66 -46t49 -58t31 -68t9 -82q0 -118 -96 -200t-268 -82q-184 0 -310 86 q-10 8 -14 21t2 29l62 124q8 22 32 22q10 0 22 -6q98 -62 210 -62q104 0 104 68q0 62 -178 132q-140 54 -202 124t-62 174z" />
<glyph unicode="t" horiz-adv-x="798" d="M60 762v140q0 20 12 32t30 12h92v262q0 18 14 32t32 14h168q18 0 30 -14t12 -32v-262h222q18 0 31 -12t13 -32v-140q0 -16 -13 -31t-31 -15h-222v-426q0 -46 20 -62t58 -16q52 0 144 32q12 4 18 4q28 0 34 -28l28 -126q2 -4 2 -14q0 -24 -30 -42q-30 -16 -115 -38 t-151 -22q-76 0 -130 23t-81 68t-40 96t-13 117v434h-92q-18 0 -30 15t-12 31z" />
<glyph unicode="u" horiz-adv-x="1090" d="M120 400v502q0 20 14 32t32 12h166q18 0 31 -12t13 -32v-502q0 -96 37 -143t123 -47q72 0 114 53t54 125v514q0 26 10 35t42 9h160q18 0 31 -12t13 -32v-856q0 -18 -13 -32t-31 -14h-74q-32 0 -46 34l-26 80q-130 -136 -287 -136h-5q-106 0 -179 31t-110 91t-53 131 t-16 169z" />
<glyph unicode="v" horiz-adv-x="1004" d="M24 914q0 14 11 23t29 9h194q28 0 44 -26l196 -468h4l208 468q12 26 60 26h172q18 0 28 -9t10 -23q0 -10 -6 -24l-426 -888q-16 -24 -40 -24h-12q-26 0 -42 24l-424 888q-6 12 -6 24z" />
<glyph unicode="w" horiz-adv-x="1460" d="M50 912q0 16 12 25t30 9h160q12 0 25 -8t15 -20l144 -452h2l248 480q8 20 36 20h20q28 0 38 -20l246 -480h2l142 452q4 18 17 23t35 5h144q20 0 33 -10t13 -28q0 -10 -2 -16l-292 -888q-4 -12 -15 -19t-27 -7h-8q-24 0 -40 22l-296 570h-2l-298 -570q-12 -22 -36 -22h-14 q-32 0 -40 26l-288 888q-4 6 -4 20z" />
<glyph unicode="x" horiz-adv-x="1050" d="M44 38q0 12 10 32l300 412l-288 394q-10 12 -10 29t11 29t31 12h186q28 0 46 -6t32 -26l158 -248h4l162 248q22 32 72 32h200q38 0 40 -34q0 -20 -12 -36l-292 -390l294 -416q12 -16 12 -33t-11 -27t-29 -10h-196q-40 0 -66 38l-174 262h-4l-184 -282q-14 -18 -40 -18 h-212q-20 0 -30 11t-10 27z" />
<glyph unicode="y" horiz-adv-x="1020" d="M38 906q0 16 13 28t33 12h196q32 0 40 -26l170 -566h4l216 566q4 14 16 20t42 6h174q20 0 33 -10t13 -28q0 -14 -4 -24l-558 -1342q-12 -28 -40 -30h-198q-20 0 -32 13t-12 29q0 14 4 22l190 480l-294 828q-4 16 -6 22z" />
<glyph unicode="z" horiz-adv-x="834" d="M66 46q0 24 10 42l338 620v4h-284q-16 0 -30 15t-14 31v144q0 20 12 32t32 12h610q20 0 33 -12t13 -30q0 -10 -6 -24l-356 -644v-4h270q18 0 32 -14t14 -32v-140q0 -18 -14 -32t-32 -14h-584q-18 0 -31 13t-13 33z" />
<glyph unicode="{" horiz-adv-x="810" d="M38 416v100q0 26 30 34q16 4 46 19t63 49t33 74v240q0 94 18 170t46 128t70 92t85 64t96 39t98 21t95 8q36 0 42 -34l8 -130q0 -16 -8 -25t-20 -11q-62 -12 -108 -35t-86 -59t-61 -94t-21 -134v-194q0 -62 -23 -114t-56 -84t-55 -47t-36 -21v-10q24 -10 50 -27t56 -46 t47 -76t17 -107v-198q0 -98 35 -164t94 -98t147 -52q12 -2 21 -12t7 -26l-8 -130q0 -10 -9 -22t-29 -12h-4q-54 4 -95 8t-95 19t-96 37t-85 61t-72 91t-47 129t-18 171v232q0 40 -25 73t-56 46t-59 19q-12 2 -22 13t-10 25z" />
<glyph unicode="|" horiz-adv-x="364" d="M132 -450v1968q0 16 12 27t26 11h26q16 0 27 -11t11 -27v-1968q0 -16 -13 -27t-27 -11h-24q-16 0 -27 11t-11 27z" />
<glyph unicode="}" horiz-adv-x="810" d="M44 -348q0 16 9 26t19 12q136 28 205 100t69 218v198q0 58 17 106t47 77t56 46t50 27v10q-12 6 -35 21t-55 47t-56 84t-24 114v194q0 78 -20 135t-60 93t-86 59t-108 35q-30 6 -28 36l8 130q2 34 40 34q54 -2 98 -8t97 -21t96 -39t85 -64t70 -92t45 -129t17 -169v-240 q0 -40 34 -74t64 -48t46 -20q28 -8 28 -34v-100q0 -16 -9 -26t-21 -12q-28 -4 -59 -18t-57 -46t-26 -74v-232q0 -94 -17 -170t-46 -129t-71 -92t-85 -62t-96 -39t-97 -21t-96 -7h-4q-12 0 -23 10t-13 24z" />
<glyph unicode="~" horiz-adv-x="1114" d="M68 516q0 12 8 20q60 82 146 143t160 61q40 0 83 -16t62 -28t63 -40l20 -12q20 -14 24 -18t23 -14t29 -12t24 -6t30 -4q78 0 150 106q12 16 32 16q16 0 28 -12l86 -90q12 -8 12 -26q0 -14 -8 -22q-60 -82 -143 -142t-157 -60q-16 0 -32 2t-30 5t-25 6t-27 11t-24 11 t-24 13t-21 12t-23 14t-20 14q-4 2 -18 13t-24 17t-26 14t-32 11t-34 3q-46 0 -85 -32t-65 -72q-12 -16 -32 -16q-14 0 -26 12q-58 58 -92 90q-12 12 -12 28z" />
<glyph unicode="&#xa1;" horiz-adv-x="506" d="M86 799q0 69 49 118t121 49q68 0 117 -49t49 -118t-49 -120t-117 -51q-70 0 -120 51t-50 120zM102 -220l80 576q2 12 14 23t26 11h64q12 0 25 -11t15 -23l80 -572v-232q0 -16 -13 -28t-27 -12h-224q-16 0 -28 13t-12 27v228z" />
<glyph unicode="&#xa2;" horiz-adv-x="1112" d="M124 474q0 138 67 250t182 177t253 65q16 0 50 -4l26 98q4 12 16 23t26 11q6 0 14 -4l28 -6q32 -8 34 -40q0 -8 -2 -14l-26 -94q96 -36 186 -130q10 -10 12 -24q0 -22 -22 -42l-86 -94q-12 -12 -24 -14q-18 0 -36 20q-50 46 -90 60l-136 -500q12 -2 34 -2q50 0 91 18 t62 37t49 51q12 14 34 14q16 0 24 -8l94 -78q24 -20 24 -44q0 -8 -8 -24q-126 -198 -376 -198q-54 0 -90 8l-60 -232q-4 -14 -18 -23t-30 -9q-6 0 -10 2l-24 8q-18 4 -27 18t-7 32l64 236q-136 58 -217 179t-81 277zM382 474q0 -144 104 -218l126 476q-102 -6 -166 -79 t-64 -179z" />
<glyph unicode="&#xa3;" d="M200 634v28q0 16 11 27t27 11h64q-4 20 -18 72t-22 82t-15 77t-7 89q0 198 124 316t310 118q54 0 106 -12t85 -25t71 -39t50 -36t38 -34q14 -10 14 -28q0 -12 -10 -24l-100 -122q-10 -14 -27 -15t-29 9q-44 36 -100 65t-96 29q-74 0 -127 -53t-53 -139q0 -60 36 -180 t42 -150h238q16 0 27 -12t11 -26v-30q0 -16 -11 -26t-27 -10h-218q6 -50 6 -112q0 -148 -34 -256h400q16 0 27 -12t11 -28v-150q0 -16 -10 -27t-28 -11h-678q-16 0 -27 11t-11 27v38q92 172 92 358q0 80 -16 162h-88q-16 0 -27 11t-11 27z" />
<glyph unicode="&#xa4;" horiz-adv-x="1008" d="M146 438q0 18 10 28l98 100q-24 56 -24 114q0 62 26 114l-98 98q-10 10 -10 30q0 16 10 26l82 80q10 10 26 10q18 0 28 -10l98 -96q60 26 114 26q56 0 114 -26l96 96q10 10 28 10t28 -10l80 -82q12 -12 12 -28q0 -14 -10 -26l-96 -96q26 -64 26 -120q0 -62 -24 -112 l96 -98q10 -10 10 -26q0 -18 -10 -28l-82 -80q-12 -12 -28 -12q-14 0 -26 10l-98 98q-60 -26 -116 -26q-58 0 -116 26l-100 -98q-10 -10 -28 -10q-16 0 -26 10l-80 82q-10 10 -10 26zM400 679q0 -45 28 -75q30 -28 76 -28t76 29t30 74t-31 76t-75 31q-46 0 -75 -31t-29 -76z " />
<glyph unicode="&#xa5;" d="M48 1396q0 16 10 27t28 11h210q18 0 34 -18l286 -472l288 472q14 18 32 18h208q18 0 29 -10t11 -28q0 -12 -6 -22l-432 -682v-96h222q16 0 28 -11t12 -27v-30q0 -16 -11 -26t-29 -10h-222v-142h222q16 0 28 -11t12 -27v-30q0 -16 -11 -26t-29 -10h-222v-208 q0 -16 -13 -27t-27 -11h-188q-16 0 -27 12t-11 26v208h-228q-16 0 -26 12t-10 26v28q0 16 11 27t25 11h228v142h-228q-16 0 -26 12t-10 26v28q0 16 11 27t25 11h228v94l-426 684q-6 8 -6 22z" />
<glyph unicode="&#xa7;" horiz-adv-x="1148" d="M126 -320q0 12 14 32l62 108q18 28 42 28q16 0 30 -12l34 -20q32 -20 70 -41t92 -39t100 -18q70 0 122 36t52 102q0 140 -246 240q-368 152 -368 418q0 156 146 278q-148 136 -146 292q0 70 25 133t76 117t138 87t201 33q70 0 138 -16t120 -41t81 -41t51 -32 q20 -10 20 -40q0 -12 -6 -24l-84 -122q-16 -22 -34 -22q-14 0 -32 12q-24 16 -57 36t-97 43t-110 23q-82 0 -130 -40t-48 -90q0 -66 57 -116t175 -100q70 -28 119 -52t109 -63t97 -81t63 -103t26 -131q0 -86 -45 -159t-105 -125q150 -138 150 -300q0 -156 -125 -268 t-325 -112q-86 0 -165 17t-132 46t-83 50t-48 39q-22 22 -24 38zM374 532q0 -40 16 -71t61 -62t73 -46t108 -51q28 -12 44 -20q32 20 57 66t25 98q0 144 -310 240l-8 -6q-8 -8 -12 -13t-13 -17t-15 -23t-13 -25t-10 -32t-3 -38z" />
<glyph unicode="&#xa8;" horiz-adv-x="846" d="M82 1260q0 64 42 105t106 41t106 -41t42 -105t-42 -107t-106 -43q-62 0 -105 43t-43 107zM494 1260q0 64 42 105t106 41t106 -41t42 -105t-42 -107t-106 -43q-62 0 -105 43t-43 107z" />
<glyph unicode="&#xa9;" horiz-adv-x="1696" d="M112 717q0 149 59 285t157 236t234 158t286 58t286 -59t234 -158t158 -235t60 -285t-59 -286t-158 -235t-235 -156t-286 -58t-286 58t-234 156t-158 234q-58 138 -58 287zM272 717q0 -155 77 -289t210 -210t289 -76t289 76t210 209t77 289q0 158 -77 290t-209 209 t-290 77q-156 0 -289 -77t-210 -210t-77 -288zM484 714q0 160 112 273t270 113q132 0 230 -78q14 -12 14 -31t-10 -29l-70 -80q-18 -24 -52 -4q-46 32 -110 34q-80 0 -134 -57t-54 -137q0 -84 53 -139t135 -55q62 0 108 34q30 20 52 -6l74 -78q10 -10 10 -28t-12 -30 q-98 -86 -234 -86q-158 0 -270 112t-112 272z" />
<glyph unicode="&#xaa;" horiz-adv-x="698" d="M74 1024q0 84 64 138t178 54q66 0 110 -16q0 62 -17 86t-69 24q-56 0 -160 -24q-28 -6 -34 30l-12 68q-6 28 18 40q14 8 78 19t128 11q132 0 183 -63t51 -201v-330q0 -12 -9 -20t-19 -8h-56q-18 0 -28 20q-2 8 -9 22t-9 20q-24 -24 -42 -37t-57 -27t-85 -14 q-90 0 -147 57t-57 151zM242 1026q0 -34 22 -57t56 -23q32 0 63 23t41 49v68q-10 8 -39 15t-53 7q-38 0 -64 -24t-26 -58z" />
<glyph unicode="&#xab;" horiz-adv-x="996" d="M72 483q0 13 8 25l224 304q14 24 36 24h116q18 0 29 -10t11 -26q0 -8 -8 -28l-140 -284l134 -302q6 -16 6 -26q0 -34 -38 -36h-126q-20 2 -32 18l-212 316q-8 12 -8 25zM490 458q-16 24 0 50l222 304q14 24 38 24h116q18 0 29 -10t11 -26q0 -8 -8 -28l-140 -284l132 -302 q6 -16 8 -26q0 -34 -38 -36h-126q-18 0 -32 18z" />
<glyph unicode="&#xac;" horiz-adv-x="1180" d="M136 654v114q0 16 12 27t26 11h804q16 0 28 -12t12 -26v-462q0 -16 -11 -27t-29 -11h-114q-16 0 -27 11t-11 27v308h-652q-16 0 -27 12t-11 28z" />
<glyph unicode="&#xad;" horiz-adv-x="758" d="M112 430v138q0 16 12 27t28 11h456q16 0 28 -11t12 -27v-138q0 -16 -12 -26t-28 -10h-456q-16 0 -28 10t-12 26z" />
<glyph unicode="&#xae;" horiz-adv-x="1696" d="M112 717q0 149 59 285t157 236t234 158t286 58t286 -59t234 -158t158 -235t60 -285t-59 -286t-158 -235t-235 -156t-286 -58t-286 58t-234 156t-158 234q-58 138 -58 287zM272 717q0 -155 77 -289t210 -210t289 -76t289 76t210 209t77 289q0 158 -77 290t-209 209 t-290 77q-156 0 -289 -77t-210 -210t-77 -288zM574 382v672q0 16 11 28t27 12h318q102 0 177 -70t75 -184q0 -156 -146 -228l94 -212q4 -12 4 -20q0 -16 -11 -26t-27 -10h-110q-24 0 -38 28l-90 230h-106v-220q0 -16 -11 -27t-29 -11h-100q-16 0 -27 11t-11 27zM746 754h162 q36 0 60 24t24 60t-24 60t-60 24h-162v-168z" />
<glyph unicode="&#xaf;" horiz-adv-x="846" d="M122 1204v70q0 38 40 38h524q38 0 38 -38v-70q0 -16 -11 -26t-27 -10h-524q-16 0 -28 10t-12 26z" />
<glyph unicode="&#xb0;" horiz-adv-x="692" d="M70 1177q0 115 81 196t195 81t195 -81t81 -196t-82 -197q-80 -80 -194 -78q-114 0 -195 80t-81 195zM242 1178q0 -40 32 -72t72 -32t70 30t30 74q0 40 -30 70t-70 30t-72 -31t-32 -69z" />
<glyph unicode="&#xb1;" d="M172 136v114q0 16 12 27t26 11h808q16 0 26 -12t10 -26v-114q0 -16 -11 -28t-25 -12h-808q-16 0 -27 12t-11 28zM172 782v116q0 16 12 27t26 11h308v304q0 16 11 26t29 10h114q16 0 27 -11t11 -25v-304h308q16 0 26 -11t10 -27v-116q0 -16 -11 -27t-25 -11h-308v-212 q0 -16 -11 -26t-27 -10h-114q-16 0 -28 10t-12 26v212h-308q-16 0 -27 11t-11 27z" />
<glyph unicode="&#xb2;" horiz-adv-x="572" d="M56 1050v36l224 258q52 58 52 102q0 30 -23 51t-59 21q-24 0 -50 -14t-40 -28q-20 -12 -34 6l-44 64q-10 12 -9 21t15 23q84 70 192 68q98 0 158 -52t60 -136t-76 -176l-110 -130h164q8 0 13 -5t5 -15v-94q0 -18 -18 -18h-400q-20 0 -20 18z" />
<glyph unicode="&#xb3;" horiz-adv-x="568" d="M56 1098q0 6 8 18l44 60q4 4 9 6t7 2h12h8l4 -4q4 -4 14 -9t21 -10t27 -10t30 -5q40 0 63 17t23 48t-26 49t-70 18h-60q-30 0 -30 28v64q0 28 30 28h60q36 0 60 18t24 46t-22 45t-56 17q-36 0 -80 -34q-16 -12 -32 8l-48 58q-20 24 2 38q24 24 75 44t107 20q98 0 160 -46 t62 -124q0 -50 -32 -87t-74 -55v-2q48 -18 86 -56t38 -100q0 -82 -69 -129t-171 -47q-118 0 -194 68q-10 10 -10 18z" />
<glyph unicode="&#xb4;" horiz-adv-x="618" d="M90 1180q0 14 16 26l334 198q12 8 26 10q18 0 28 -16l58 -104q6 -12 8 -24q0 -20 -20 -30l-358 -158q-16 -6 -24 -6q-20 0 -28 18l-36 74q-4 8 -4 12z" />
<glyph unicode="&#xb5;" horiz-adv-x="1122" d="M162 420v482q0 20 13 32t31 12h166q18 0 32 -12t14 -32v-482q0 -208 160 -210q72 0 114 53t54 125v514q0 26 10 35t40 9h160q18 0 32 -12t14 -32v-856q0 -18 -14 -32t-32 -14h-74q-32 0 -44 34l-26 80q-4 -4 -27 -28t-42 -38t-51 -33t-76 -28t-98 -9t-100 10v-430 q0 -18 -14 -32t-32 -14h-166q-16 0 -30 14t-14 32v862z" />
<glyph unicode="&#xb6;" horiz-adv-x="1562" d="M84 1006q0 176 116 302t282 126l934 -2q16 0 27 -11t11 -29v-94q0 -16 -12 -27t-26 -11h-160v-1708q0 -16 -12 -28t-28 -12h-110q-16 0 -27 13t-11 27v1708h-280v-1708q0 -16 -11 -28t-27 -12h-112q-16 0 -27 13t-11 27v1024h-90q-114 0 -212 56t-156 155t-58 219z" />
<glyph unicode="&#xb7;" horiz-adv-x="542" d="M86 524q0 38 14 73t40 61t59 40t69 14q38 0 73 -14t61 -40t40 -60t14 -74q0 -36 -14 -69t-40 -59t-61 -40t-73 -14q-36 0 -69 14t-59 40t-40 59t-14 69z" />
<glyph unicode="&#xb8;" horiz-adv-x="504" d="M64 -430q0 14 10 34l18 42q12 26 32 26q12 0 24 -8q46 -32 88 -32q44 0 70 20t26 60q0 36 -26 57t-68 21q-16 0 -31 -5t-29 -12t-18 -7q-16 -6 -30 9t-6 29l102 202h132l-84 -132q20 6 44 6q74 0 124 -49t50 -131q0 -94 -70 -149t-176 -55q-112 0 -172 52q-10 8 -10 22z " />
<glyph unicode="&#xb9;" horiz-adv-x="422" d="M46 1520q0 12 14 22l150 96h106q8 0 13 -5t5 -13v-570q0 -8 -5 -13t-13 -5h-128q-20 0 -20 18v396l-100 -8q-18 0 -18 18z" />
<glyph unicode="&#xba;" horiz-adv-x="674" d="M80 1130q0 154 66 239t194 85q124 0 190 -85t66 -239q0 -152 -67 -238t-189 -86q-126 0 -193 86t-67 238zM250 1130q0 -86 23 -133t67 -47q40 0 65 47t25 133t-25 133t-65 47q-44 0 -67 -47t-23 -133z" />
<glyph unicode="&#xbb;" horiz-adv-x="996" d="M90 800q0 16 10 26t30 10h116q22 0 36 -24l224 -304q8 -12 8 -24t-8 -26l-214 -316q-12 -16 -30 -18h-126q-36 0 -38 36q0 12 6 26l134 302l-140 284q-8 20 -8 28zM500 800q0 16 10 26t28 10h118q22 0 36 -24l224 -304q8 -12 8 -24t-8 -26l-214 -316q-12 -16 -30 -18 h-128q-36 0 -36 36q0 12 6 26l134 302l-140 284q-8 20 -8 28z" />
<glyph unicode="&#xbc;" horiz-adv-x="1420" d="M94 1314q0 12 14 24l152 96h104q8 0 13 -5t5 -13v-570q0 -8 -5 -13t-13 -5h-126q-20 0 -20 18v396l-102 -10q-18 0 -18 20zM230 36q0 12 4 20l702 1358q10 20 34 20h104q16 0 27 -10t11 -28q0 -12 -4 -18l-706 -1358q-10 -20 -36 -20h-98q-16 0 -27 10t-11 26zM770 134 v104l334 362q6 6 16 6h84q8 0 13 -5t5 -13v-348h82q8 0 14 -5t6 -11v-88q0 -8 -6 -14t-14 -6h-82v-98q0 -8 -5 -13t-13 -5h-114q-8 0 -14 6t-6 12v98h-282q-8 0 -13 5t-5 13zM920 238h152v170z" />
<glyph unicode="&#xbd;" horiz-adv-x="1404" d="M94 1314q0 12 14 24l152 96h104q8 0 13 -5t5 -13v-570q0 -8 -5 -13t-13 -5h-126q-20 0 -20 18v396l-102 -10q-18 0 -18 20zM230 36q0 12 4 20l702 1358q10 20 34 20h104q16 0 27 -10t11 -28q0 -12 -4 -18l-706 -1358q-10 -20 -36 -20h-98q-16 0 -27 10t-11 26zM852 18v36 l226 258q52 58 50 102q0 30 -22 51t-60 21q-24 0 -50 -14t-40 -28q-20 -12 -32 6l-46 64q-10 12 -9 21t15 23q84 70 194 68q98 0 157 -52t59 -136t-76 -176l-110 -130h164q8 0 13 -6t5 -14v-94q0 -18 -18 -18h-400q-20 0 -20 18z" />
<glyph unicode="&#xbe;" horiz-adv-x="1488" d="M102 892q0 6 8 20l46 58q4 4 8 6t8 2h10h8l6 -4q4 -4 14 -9t21 -10t25 -9t30 -4q40 0 63 16t23 47t-24 50t-72 19h-58q-30 0 -32 28v64q0 28 32 28h58q36 0 60 17t24 46t-22 45t-56 16q-44 0 -80 -32q-8 -6 -15 -5t-15 11l-50 60q-20 24 2 36q24 24 75 45t109 21 q98 0 159 -46t61 -124q0 -50 -31 -87t-73 -57v-2q48 -18 85 -56t37 -98q0 -82 -68 -130t-170 -48q-118 0 -196 68q-10 10 -10 18zM300 36q0 12 4 20l702 1358q10 20 34 20h102q16 0 28 -10t12 -28q0 -12 -4 -18l-706 -1358q-10 -20 -36 -20h-98q-16 0 -27 10t-11 26z M840 134v104l334 362q6 6 16 6h84q8 0 13 -5t5 -13v-348h82q8 0 13 -5t5 -11v-88q0 -8 -5 -14t-13 -6h-82v-98q0 -8 -5 -13t-13 -5h-114q-8 0 -15 6t-7 12v98h-280q-8 0 -13 5t-5 13zM990 238h150v170z" />
<glyph unicode="&#xbf;" horiz-adv-x="988" d="M98 -166q0 70 33 128t78 99t90 76t78 71t33 68v68q0 20 10 32t30 12h166q16 0 28 -12t12 -28v-86q0 -46 -21 -88t-54 -73t-69 -64t-67 -60t-53 -59t-22 -68q0 -58 44 -97t120 -39q44 0 83 14t59 28t45 36t35 28q24 16 44 -2l98 -94q12 -12 12 -26q0 -16 -12 -28 q-54 -72 -166 -126t-236 -54q-164 0 -281 98t-117 246zM364 799q0 69 50 118t120 49t119 -49t50 -118t-49 -121q-50 -50 -120 -50t-120 51t-50 120z" />
<glyph unicode="&#xc0;" horiz-adv-x="1368" d="M0 34q0 6 4 20l638 1378q12 22 34 22h20q24 0 36 -22l630 -1378q4 -12 4 -20q0 -16 -10 -25t-28 -9h-180q-22 0 -34 9t-24 31l-100 222h-614l-100 -222q-16 -40 -58 -40h-180q-18 0 -28 10t-10 24zM448 1762q0 8 8 24l58 106q8 14 26 14q10 0 26 -8l336 -200 q14 -8 14 -26q0 -8 -2 -14l-36 -70q-10 -20 -26 -22q-10 0 -26 6l-358 158q-20 10 -20 32zM478 490h410l-204 450h-6z" />
<glyph unicode="&#xc1;" horiz-adv-x="1368" d="M0 34q0 6 4 20l638 1378q12 22 34 22h20q24 0 36 -22l630 -1378q4 -12 4 -20q0 -16 -10 -25t-28 -9h-180q-22 0 -34 9t-24 31l-100 222h-614l-100 -222q-16 -40 -58 -40h-180q-18 0 -28 10t-10 24zM448 1672q0 20 14 26l336 200q16 10 28 10q14 0 26 -16l56 -106 q8 -16 8 -24q0 -20 -20 -32l-358 -158q-16 -6 -24 -6q-16 0 -28 22l-36 70q-2 4 -2 14zM478 490h410l-204 450h-6z" />
<glyph unicode="&#xc2;" horiz-adv-x="1368" d="M0 34q0 6 4 20l638 1378q12 22 34 22h20q24 0 36 -22l630 -1378q4 -12 4 -20q0 -16 -10 -25t-28 -9h-180q-22 0 -34 9t-24 31l-100 222h-614l-100 -222q-16 -40 -58 -40h-180q-18 0 -28 10t-10 24zM380 1662q0 14 16 28l266 206q12 8 20 8q6 0 24 -8l266 -206 q16 -12 16 -28q0 -8 -4 -12l-54 -76q-8 -14 -22 -14q-12 0 -24 8l-200 126l-200 -126q-12 -8 -24 -8q-14 0 -22 14l-54 76q-4 8 -4 12zM478 490h410l-204 450h-6z" />
<glyph unicode="&#xc3;" horiz-adv-x="1368" d="M0 34q0 6 4 20l638 1378q12 22 34 22h20q24 0 36 -22l630 -1378q4 -12 4 -20q0 -16 -10 -25t-28 -9h-180q-22 0 -34 9t-24 31l-100 222h-614l-100 -222q-16 -40 -58 -40h-180q-18 0 -28 10t-10 24zM362 1692q0 10 2 14q90 172 212 172q36 0 69 -17t53 -39t47 -39t51 -17 q20 0 37 14t27 31t22 32t24 15t22 -8l58 -42q14 -14 14 -28q0 -16 -12 -36q0 -2 -4 -8q-14 -24 -26 -41t-38 -46t-59 -44t-71 -15q-36 0 -70 17t-57 40t-49 40t-48 17q-20 0 -37 -15t-27 -34t-22 -33t-24 -14q-8 0 -20 8l-60 42q-14 12 -14 34zM478 490h410l-204 450h-6z " />
<glyph unicode="&#xc4;" horiz-adv-x="1368" d="M0 34q0 6 4 20l638 1378q12 22 34 22h20q24 0 36 -22l630 -1378q4 -12 4 -20q0 -16 -10 -25t-28 -9h-180q-22 0 -34 9t-24 31l-100 222h-614l-100 -222q-16 -40 -58 -40h-180q-18 0 -28 10t-10 24zM280 1718q0 64 42 106t106 42t106 -42t42 -106t-42 -107t-106 -43 q-62 0 -105 43t-43 107zM478 490h410l-204 450h-6zM786 1718q0 64 42 106t106 42t106 -42t42 -106t-42 -107t-106 -43q-62 0 -105 43t-43 107z" />
<glyph unicode="&#xc5;" horiz-adv-x="1368" d="M0 34q0 6 4 20l638 1378q12 22 34 22h20q24 0 36 -22l630 -1378q4 -12 4 -20q0 -16 -10 -25t-28 -9h-180q-22 0 -34 9t-24 31l-100 222h-614l-100 -222q-16 -40 -58 -40h-180q-18 0 -28 10t-10 24zM452 1776q0 96 67 164t163 68q94 0 163 -68t69 -164t-69 -164t-163 -68 q-96 0 -163 68t-67 164zM478 490h410l-204 450h-6zM581 1775q1 -39 31 -71q32 -30 70 -30t69 31t31 70t-30 69t-70 30q-38 0 -70 -30t-31 -69z" />
<glyph unicode="&#xc6;" horiz-adv-x="1834" d="M-26 28q0 12 8 26l820 1316q26 40 40 52q18 12 50 12h810q16 0 27 -12t11 -28v-168q0 -16 -11 -27t-27 -11h-612v-336h512q16 0 27 -12t11 -26v-170q0 -16 -11 -28t-27 -12h-512v-358h612q16 0 27 -12t11 -28v-168q0 -16 -11 -27t-27 -11h-836q-16 0 -27 12t-11 26v224 h-430l-146 -232q-20 -30 -52 -30h-194q-16 0 -24 8t-8 20zM540 490h288v462z" />
<glyph unicode="&#xc7;" horiz-adv-x="1408" d="M90 714q0 200 98 372t268 270t374 98q152 0 269 -47t227 -143q14 -12 14 -29t-12 -29l-126 -128q-24 -24 -52 0q-62 56 -145 88t-169 32q-192 0 -325 -140t-133 -338q0 -126 60 -235t165 -173t235 -64q168 0 312 116q28 22 52 0l128 -130q10 -8 10 -26t-12 -30 q-200 -196 -488 -198l-68 -106q20 6 44 6q74 0 124 -49t50 -131q0 -94 -69 -149t-177 -55q-110 0 -172 52q-12 20 -11 29t11 27l18 42q12 26 32 26q12 0 24 -8q46 -32 88 -32q46 0 71 20t25 60q0 36 -26 57t-68 21q-16 0 -31 -5t-29 -12t-18 -7q-16 -6 -30 9t-6 29l90 184 q-176 26 -317 128t-223 259t-82 339z" />
<glyph unicode="&#xc8;" horiz-adv-x="1178" d="M174 38v1356q0 16 11 28t27 12h834q16 0 28 -12t12 -28v-168q0 -16 -12 -27t-28 -11h-606v-336h506q16 0 28 -12t12 -26v-170q0 -16 -12 -28t-28 -12h-506v-358h606q16 0 28 -12t12 -28v-168q0 -16 -12 -27t-28 -11h-834q-16 0 -27 11t-11 27zM408 1762q0 8 8 24l58 106 q8 14 26 14q10 0 26 -8l336 -200q14 -8 14 -26q0 -8 -2 -14l-36 -70q-10 -20 -26 -22q-10 0 -26 6l-358 158q-20 10 -20 32z" />
<glyph unicode="&#xc9;" horiz-adv-x="1178" d="M174 38v1356q0 16 11 28t27 12h834q16 0 28 -12t12 -28v-168q0 -16 -12 -27t-28 -11h-606v-336h506q16 0 28 -12t12 -26v-170q0 -16 -12 -28t-28 -12h-506v-358h606q16 0 28 -12t12 -28v-168q0 -16 -12 -27t-28 -11h-834q-16 0 -27 11t-11 27zM410 1672q0 20 14 26 l336 200q16 10 28 10q14 0 26 -16l56 -106q8 -16 8 -24q0 -20 -20 -32l-358 -158q-16 -6 -24 -6q-16 0 -28 22l-36 70q-2 4 -2 14z" />
<glyph unicode="&#xca;" horiz-adv-x="1178" d="M174 38v1356q0 16 11 28t27 12h834q16 0 28 -12t12 -28v-168q0 -16 -12 -27t-28 -11h-606v-336h506q16 0 28 -12t12 -26v-170q0 -16 -12 -28t-28 -12h-506v-358h606q16 0 28 -12t12 -28v-168q0 -16 -12 -27t-28 -11h-834q-16 0 -27 11t-11 27zM328 1662q0 14 16 28 l266 206q12 8 20 8q6 0 24 -8l266 -206q16 -12 16 -28q0 -8 -4 -12l-54 -76q-8 -14 -22 -14q-12 0 -24 8l-200 126l-200 -126q-12 -8 -24 -8q-14 0 -22 14l-54 76q-4 8 -4 12z" />
<glyph unicode="&#xcb;" horiz-adv-x="1178" d="M174 38v1356q0 16 11 28t27 12h834q16 0 28 -12t12 -28v-168q0 -16 -12 -27t-28 -11h-606v-336h506q16 0 28 -12t12 -26v-170q0 -16 -12 -28t-28 -12h-506v-358h606q16 0 28 -12t12 -28v-168q0 -16 -12 -27t-28 -11h-834q-16 0 -27 11t-11 27zM240 1718q0 64 42 106 t106 42t106 -42t42 -106t-42 -107t-106 -43q-62 0 -105 43t-43 107zM746 1718q0 64 42 106t106 42t106 -42t42 -106t-42 -107t-106 -43q-62 0 -105 43t-43 107z" />
<glyph unicode="&#xcc;" horiz-adv-x="616" d="M74 1762q0 8 8 24l58 106q8 14 26 14q10 0 26 -8l336 -200q14 -8 14 -26q0 -8 -2 -14l-36 -70q-10 -20 -26 -22q-10 0 -26 6l-358 158q-20 10 -20 32zM174 38v1356q0 16 11 28t27 12h192q16 0 27 -12t11 -28v-1356q0 -16 -12 -27t-26 -11h-192q-16 0 -27 11t-11 27z" />
<glyph unicode="&#xcd;" horiz-adv-x="616" d="M76 1672q0 20 14 26l336 200q16 10 28 10q14 0 26 -16l56 -106q8 -16 8 -24q0 -20 -20 -32l-358 -158q-16 -6 -24 -6q-16 0 -28 22l-36 70q-2 4 -2 14zM174 38v1356q0 16 11 28t27 12h192q16 0 27 -12t11 -28v-1356q0 -16 -12 -27t-26 -11h-192q-16 0 -27 11t-11 27z" />
<glyph unicode="&#xce;" horiz-adv-x="616" d="M2 1662q0 14 16 28l266 206q12 8 20 8q6 0 24 -8l266 -206q16 -12 16 -28q0 -8 -4 -12l-54 -76q-8 -14 -22 -14q-12 0 -24 8l-200 126l-200 -126q-12 -8 -24 -8q-14 0 -22 14l-54 76q-4 8 -4 12zM174 38v1356q0 16 11 28t27 12h192q16 0 27 -12t11 -28v-1356 q0 -16 -12 -27t-26 -11h-192q-16 0 -27 11t-11 27z" />
<glyph unicode="&#xcf;" horiz-adv-x="616" d="M-92 1718q0 64 42 106t106 42t106 -42t42 -106t-42 -107t-106 -43q-62 0 -105 43t-43 107zM174 38v1356q0 16 11 28t27 12h192q16 0 27 -12t11 -28v-1356q0 -16 -12 -27t-26 -11h-192q-16 0 -27 11t-11 27zM414 1718q0 64 42 106t106 42t106 -42t42 -106t-42 -107 t-106 -43q-62 0 -105 43t-43 107z" />
<glyph unicode="&#xd0;" horiz-adv-x="1504" d="M78 696v26q0 16 10 28t26 12h60v632q0 16 11 28t25 12h486q146 0 279 -58t229 -153t154 -227t58 -278q0 -196 -98 -361t-263 -261t-359 -96h-486q-16 0 -26 11t-10 27v620h-60q-16 0 -26 11t-10 27zM438 250h234q200 0 330 133t130 335q0 200 -131 334t-329 134h-234 v-424h338q16 0 28 -12t12 -28v-28q0 -16 -12 -26t-28 -10h-338v-408z" />
<glyph unicode="&#xd1;" horiz-adv-x="1558" d="M174 38v1380q0 16 11 26t27 10h32q20 0 34 -14l836 -892h4v846q0 16 11 28t29 12h188q16 0 27 -12t11 -28v-1378q0 -16 -12 -26t-26 -10h-30q-20 0 -34 14l-840 926h-4v-882q0 -16 -11 -27t-27 -11h-188q-16 0 -27 11t-11 27zM460 1692q0 10 2 14q90 172 212 172 q36 0 69 -17t53 -39t47 -39t51 -17q20 0 37 14t27 31t22 32t24 15t22 -8l58 -42q14 -14 14 -28q0 -16 -12 -36q0 -2 -4 -8q-14 -24 -26 -41t-38 -46t-59 -44t-71 -15q-36 0 -70 17t-57 40t-49 40t-48 17q-20 0 -37 -15t-27 -34t-22 -33t-24 -14q-8 0 -20 8l-60 42 q-14 12 -14 34z" />
<glyph unicode="&#xd2;" horiz-adv-x="1652" d="M90 715q0 203 98 373t266 268t372 98q202 0 371 -98t267 -268t98 -373t-98 -371t-267 -266t-371 -98t-371 98t-267 266t-98 371zM356 714q0 -192 137 -330t333 -138q126 0 235 63t172 171t63 235t-63 236t-172 173t-235 64t-234 -64t-172 -174t-64 -236zM596 1762 q0 8 8 24l58 106q8 14 26 14q10 0 26 -8l336 -200q14 -8 14 -26q0 -8 -2 -14l-36 -70q-10 -20 -26 -22q-10 0 -26 6l-358 158q-20 10 -20 32z" />
<glyph unicode="&#xd3;" horiz-adv-x="1652" d="M90 715q0 203 98 373t266 268t372 98q202 0 371 -98t267 -268t98 -373t-98 -371t-267 -266t-371 -98t-371 98t-267 266t-98 371zM356 714q0 -192 137 -330t333 -138q126 0 235 63t172 171t63 235t-63 236t-172 173t-235 64t-234 -64t-172 -174t-64 -236zM594 1672 q0 20 14 26l336 200q16 10 28 10q14 0 26 -16l56 -106q8 -16 8 -24q0 -20 -20 -32l-358 -158q-16 -6 -24 -6q-16 0 -28 22l-36 70q-2 4 -2 14z" />
<glyph unicode="&#xd4;" horiz-adv-x="1652" d="M90 715q0 203 98 373t266 268t372 98q202 0 371 -98t267 -268t98 -373t-98 -371t-267 -266t-371 -98t-371 98t-267 266t-98 371zM356 714q0 -192 137 -330t333 -138q126 0 235 63t172 171t63 235t-63 236t-172 173t-235 64t-234 -64t-172 -174t-64 -236zM520 1662 q0 14 16 28l266 206q12 8 20 8q6 0 24 -8l266 -206q16 -12 16 -28q0 -8 -4 -12l-54 -76q-8 -14 -22 -14q-12 0 -24 8l-200 126l-200 -126q-12 -8 -24 -8q-14 0 -22 14l-54 76q-4 8 -4 12z" />
<glyph unicode="&#xd5;" horiz-adv-x="1652" d="M90 715q0 203 98 373t266 268t372 98q202 0 371 -98t267 -268t98 -373t-98 -371t-267 -266t-371 -98t-371 98t-267 266t-98 371zM356 714q0 -192 137 -330t333 -138q126 0 235 63t172 171t63 235t-63 236t-172 173t-235 64t-234 -64t-172 -174t-64 -236zM508 1692 q0 10 2 14q90 172 212 172q36 0 69 -17t53 -39t47 -39t51 -17q20 0 37 14t27 31t22 32t24 15t22 -8l58 -42q14 -14 14 -28q0 -16 -12 -36q0 -2 -4 -8q-14 -24 -26 -41t-38 -46t-59 -44t-71 -15q-36 0 -70 17t-57 40t-49 40t-48 17q-20 0 -37 -15t-27 -34t-22 -33t-24 -14 q-8 0 -20 8l-60 42q-14 12 -14 34z" />
<glyph unicode="&#xd6;" horiz-adv-x="1652" d="M90 715q0 203 98 373t266 268t372 98q202 0 371 -98t267 -268t98 -373t-98 -371t-267 -266t-371 -98t-371 98t-267 266t-98 371zM356 714q0 -192 137 -330t333 -138q126 0 235 63t172 171t63 235t-63 236t-172 173t-235 64t-234 -64t-172 -174t-64 -236zM424 1718 q0 64 42 106t106 42t106 -42t42 -106t-42 -107t-106 -43q-62 0 -105 43t-43 107zM930 1718q0 64 42 106t106 42t106 -42t42 -106t-42 -107t-106 -43q-62 0 -105 43t-43 107z" />
<glyph unicode="&#xd7;" d="M252 467q0 17 10 27l218 216l-218 218q-10 10 -10 26q0 18 10 30l80 80q10 10 26 12q18 0 30 -12l216 -216l218 220q10 10 24 10q16 0 28 -14l82 -80q12 -12 12 -30q0 -14 -10 -24l-216 -220l216 -216q10 -12 10 -28t-12 -28l-82 -80q-12 -12 -28 -12q-14 0 -24 10 l-218 220l-216 -218q-10 -10 -28 -10q-16 0 -26 10l-82 82q-10 10 -10 27z" />
<glyph unicode="&#xd8;" horiz-adv-x="1650" d="M90 714q0 200 98 372t266 270t372 98q136 0 259 -47t223 -133l140 138q10 10 26 10t28 -10l20 -22q10 -10 10 -25t-10 -27l-140 -140q86 -98 133 -222t47 -260q0 -200 -98 -370t-267 -268t-371 -98q-282 0 -484 178l-134 -134q-12 -10 -26 -9t-26 11l-20 22 q-12 12 -13 27t11 25l132 132q-176 204 -176 482zM356 714q0 -160 102 -290l662 660q-136 104 -294 104q-126 0 -234 -64t-172 -173t-64 -237zM532 348q130 -102 294 -102q192 0 331 139t139 331q0 168 -104 292z" />
<glyph unicode="&#xd9;" horiz-adv-x="1460" d="M160 526v868q0 16 12 28t26 12h196q16 0 27 -12t11 -28v-854q0 -132 82 -213t216 -81t216 82t82 210v856q0 16 11 28t29 12h194q16 0 27 -12t11 -28v-868q0 -114 -44 -216t-120 -174t-182 -114t-224 -42q-160 0 -290 71t-205 196t-75 279zM496 1762q0 8 8 24l58 106 q8 14 26 14q10 0 26 -8l336 -200q14 -8 14 -26q0 -8 -2 -14l-36 -70q-10 -20 -26 -22q-10 0 -26 6l-358 158q-20 10 -20 32z" />
<glyph unicode="&#xda;" horiz-adv-x="1460" d="M160 526v868q0 16 12 28t26 12h196q16 0 27 -12t11 -28v-854q0 -132 82 -213t216 -81t216 82t82 210v856q0 16 11 28t29 12h194q16 0 27 -12t11 -28v-868q0 -114 -44 -216t-120 -174t-182 -114t-224 -42q-160 0 -290 71t-205 196t-75 279zM502 1672q0 20 14 26l336 200 q16 10 28 10q14 0 26 -16l56 -106q8 -16 8 -24q0 -20 -20 -32l-358 -158q-16 -6 -24 -6q-16 0 -28 22l-36 70q-2 4 -2 14z" />
<glyph unicode="&#xdb;" horiz-adv-x="1460" d="M160 526v868q0 16 12 28t26 12h196q16 0 27 -12t11 -28v-854q0 -132 82 -213t216 -81t216 82t82 210v856q0 16 11 28t29 12h194q16 0 27 -12t11 -28v-868q0 -114 -44 -216t-120 -174t-182 -114t-224 -42q-160 0 -290 71t-205 196t-75 279zM428 1662q0 14 16 28l266 206 q12 8 20 8q6 0 24 -8l266 -206q16 -12 16 -28q0 -8 -4 -12l-54 -76q-8 -14 -22 -14q-12 0 -24 8l-200 126l-200 -126q-12 -8 -24 -8q-14 0 -22 14l-54 76q-4 8 -4 12z" />
<glyph unicode="&#xdc;" horiz-adv-x="1460" d="M160 526v868q0 16 12 28t26 12h196q16 0 27 -12t11 -28v-854q0 -132 82 -213t216 -81t216 82t82 210v856q0 16 11 28t29 12h194q16 0 27 -12t11 -28v-868q0 -114 -44 -216t-120 -174t-182 -114t-224 -42q-160 0 -290 71t-205 196t-75 279zM330 1718q0 64 42 106t106 42 t106 -42t42 -106t-42 -107t-106 -43q-62 0 -105 43t-43 107zM836 1718q0 64 42 106t106 42t106 -42t42 -106t-42 -107t-106 -43q-62 0 -105 43t-43 107z" />
<glyph unicode="&#xdd;" horiz-adv-x="1214" d="M0 1396q0 16 10 27t28 11h210q18 0 32 -18l328 -472l328 472q14 18 32 18h212q18 0 28 -10t10 -28q0 -12 -6 -22l-472 -682v-654q0 -16 -12 -27t-28 -11h-188q-16 0 -27 11t-11 27v652l-468 684q-6 8 -6 22zM374 1672q0 20 14 26l336 200q16 10 28 10q14 0 26 -16 l56 -106q8 -16 8 -24q0 -20 -20 -32l-358 -158q-16 -6 -24 -6q-16 0 -28 22l-36 70q-2 4 -2 14z" />
<glyph unicode="&#xde;" horiz-adv-x="1206" d="M174 38v1356q0 16 11 28t27 12h190q16 0 27 -12t11 -28v-220h254h4q186 0 321 -134t135 -320q0 -190 -135 -325t-323 -135h-256v-222q0 -16 -11 -27t-27 -11h-190q-16 0 -27 11t-11 27zM440 510h238q86 0 148 61t62 151q0 84 -61 142t-149 58h-238v-412z" />
<glyph unicode="&#xdf;" horiz-adv-x="1160" d="M132 44v796q0 300 133 457t379 157q94 0 176 -44t135 -129t53 -189q0 -58 -23 -116t-51 -96t-51 -82t-23 -78q0 -24 24 -53t57 -59t67 -67t58 -93t24 -124q0 -90 -31 -158t-84 -109t-117 -60t-134 -19q-92 0 -98 44l-20 146q-2 16 9 29t29 13h2h16q62 0 109 30t47 86 q0 32 -18 63t-42 53t-53 49t-54 52t-42 60t-17 77q0 52 23 104t52 91t54 96t25 117q0 54 -39 93t-93 39q-46 0 -81 -14t-71 -53t-55 -119t-19 -198v-792q0 -16 -14 -30t-30 -14h-170q-16 0 -29 14t-13 30z" />
<glyph unicode="&#xe0;" horiz-adv-x="986" d="M66 302q0 132 100 214t276 82q94 0 182 -26v18q0 82 -30 121t-100 39q-62 0 -143 -10t-123 -26q-6 -2 -16 -2q-32 0 -38 44l-20 106q-2 6 -2 16q0 28 32 42q28 12 127 29t197 17q86 0 149 -18t103 -51t64 -86t32 -114t8 -141v-510q0 -18 -13 -32t-31 -14h-70 q-24 0 -42 32l-26 64q-122 -118 -296 -118q-144 0 -232 87t-88 237zM304 1270q0 12 6 24l58 104q8 14 26 16q16 0 28 -10l336 -198q16 -8 16 -24q0 -6 -4 -14l-38 -74q-8 -18 -26 -18q-8 0 -24 6l-360 158q-18 12 -18 30zM312 302q0 -62 35 -98t101 -36q58 0 108 35t62 65 v140q-66 28 -138 28q-82 0 -125 -35t-43 -99z" />
<glyph unicode="&#xe1;" horiz-adv-x="986" d="M66 302q0 132 100 214t276 82q94 0 182 -26v18q0 82 -30 121t-100 39q-62 0 -143 -10t-123 -26q-6 -2 -16 -2q-32 0 -38 44l-20 106q-2 6 -2 16q0 28 32 42q28 12 127 29t197 17q86 0 149 -18t103 -51t64 -86t32 -114t8 -141v-510q0 -18 -13 -32t-31 -14h-70 q-24 0 -42 32l-26 64q-122 -118 -296 -118q-144 0 -232 87t-88 237zM312 302q0 -62 35 -98t101 -36q58 0 108 35t62 65v140q-66 28 -138 28q-82 0 -125 -35t-43 -99zM328 1180q0 14 16 26l334 198q12 8 26 10q18 0 28 -16l58 -104q6 -12 8 -24q0 -20 -20 -30l-358 -158 q-16 -6 -24 -6q-20 0 -28 18l-36 74q-4 8 -4 12z" />
<glyph unicode="&#xe2;" horiz-adv-x="986" d="M66 302q0 132 100 214t276 82q94 0 182 -26v18q0 82 -30 121t-100 39q-62 0 -143 -10t-123 -26q-6 -2 -16 -2q-32 0 -38 44l-20 106q-2 6 -2 16q0 28 32 42q28 12 127 29t197 17q86 0 149 -18t103 -51t64 -86t32 -114t8 -141v-510q0 -18 -13 -32t-31 -14h-70 q-24 0 -42 32l-26 64q-122 -118 -296 -118q-144 0 -232 87t-88 237zM198 1172q0 14 16 26l266 206q12 8 20 10q6 0 24 -10l266 -206q16 -12 16 -26q0 -8 -4 -12l-54 -76q-8 -14 -22 -14q-12 0 -24 8l-200 124l-200 -124q-12 -8 -24 -8q-14 0 -22 14l-54 76q-4 8 -4 12z M312 302q0 -62 35 -98t101 -36q58 0 108 35t62 65v140q-66 28 -138 28q-82 0 -125 -35t-43 -99z" />
<glyph unicode="&#xe3;" horiz-adv-x="986" d="M66 302q0 132 100 214t276 82q94 0 182 -26v18q0 82 -30 121t-100 39q-62 0 -143 -10t-123 -26q-6 -2 -16 -2q-32 0 -38 44l-20 106q-2 6 -2 16q0 28 32 42q28 12 127 29t197 17q86 0 149 -18t103 -51t64 -86t32 -114t8 -141v-510q0 -18 -13 -32t-31 -14h-70 q-24 0 -42 32l-26 64q-122 -118 -296 -118q-144 0 -232 87t-88 237zM188 1226q0 10 2 16q90 172 212 172q36 0 69 -18t53 -39t47 -39t51 -18q20 0 37 15t27 32t22 31t24 14t22 -8l58 -40q14 -14 14 -30t-12 -34q0 -2 -4 -8q-14 -24 -26 -42t-38 -46t-59 -44t-71 -16 q-36 0 -70 18t-57 40t-49 40t-48 18q-20 0 -37 -16t-27 -34t-22 -33t-24 -15q-8 0 -20 8l-60 44q-14 12 -14 32zM312 302q0 -62 35 -98t101 -36q58 0 108 35t62 65v140q-66 28 -138 28q-82 0 -125 -35t-43 -99z" />
<glyph unicode="&#xe4;" horiz-adv-x="986" d="M66 302q0 132 100 214t276 82q94 0 182 -26v18q0 82 -30 121t-100 39q-62 0 -143 -10t-123 -26q-6 -2 -16 -2q-32 0 -38 44l-20 106q-2 6 -2 16q0 28 32 42q28 12 127 29t197 17q86 0 149 -18t103 -51t64 -86t32 -114t8 -141v-510q0 -18 -13 -32t-31 -14h-70 q-24 0 -42 32l-26 64q-122 -118 -296 -118q-144 0 -232 87t-88 237zM154 1260q0 64 42 105t106 41t106 -41t42 -105t-42 -107t-106 -43q-62 0 -105 43t-43 107zM312 302q0 -62 35 -98t101 -36q58 0 108 35t62 65v140q-66 28 -138 28q-82 0 -125 -35t-43 -99zM566 1260 q0 64 42 105t106 41t106 -41t42 -105t-42 -107t-106 -43q-62 0 -105 43t-43 107z" />
<glyph unicode="&#xe5;" horiz-adv-x="986" d="M66 302q0 132 100 214t276 82q94 0 182 -26v18q0 82 -30 121t-100 39q-62 0 -143 -10t-123 -26q-6 -2 -16 -2q-32 0 -38 44l-20 106q-2 6 -2 16q0 28 32 42q28 12 127 29t197 17q86 0 149 -18t103 -51t64 -86t32 -114t8 -141v-510q0 -18 -13 -32t-31 -14h-70 q-24 0 -42 32l-26 64q-122 -118 -296 -118q-144 0 -232 87t-88 237zM282 1272q0 96 67 164t163 68q94 0 163 -68t69 -164t-69 -163t-163 -67q-96 0 -163 67t-67 163zM312 302q0 -62 35 -98t101 -36q58 0 108 35t62 65v140q-66 28 -138 28q-82 0 -125 -35t-43 -99zM411 1272 q1 -40 31 -72q32 -30 70 -30t69 32t31 71t-30 68t-70 29q-38 0 -70 -29t-31 -69z" />
<glyph unicode="&#xe6;" horiz-adv-x="1582" d="M68 302q0 126 99 211t267 85q94 0 184 -24q-4 98 -30 137t-100 39q-66 0 -140 -10t-116 -26q-4 -2 -12 -2q-16 0 -28 11t-14 25l-24 126q-4 16 7 30t29 18q176 46 320 44q204 0 284 -102q122 102 286 102q120 0 220 -55t162 -155t62 -228q0 -22 -1 -35t-6 -32t-17 -28 t-30 -9h-602q0 -82 66 -151t172 -69q116 0 206 74q12 10 27 11t29 -15l80 -104q12 -18 12 -30q0 -14 -16 -32q-144 -132 -362 -130q-106 0 -197 44t-155 122q-40 -58 -131 -112t-207 -54q-146 0 -235 87t-89 237zM314 302q0 -62 36 -98t100 -36q58 0 109 35t61 65v140 q-66 28 -138 28q-82 0 -125 -35t-43 -99zM882 592h384q-4 70 -55 117t-127 47q-84 0 -139 -45t-63 -119z" />
<glyph unicode="&#xe7;" horiz-adv-x="1006" d="M74 474q0 138 66 250t182 177t254 65q202 0 352 -160q12 -12 12 -26q0 -18 -22 -40l-86 -94q-12 -12 -26 -14q-18 0 -36 20q-86 82 -188 82q-110 0 -180 -75t-70 -186t70 -187t178 -76q50 0 91 18t62 37t47 51q12 14 36 14q16 0 24 -8l92 -78q24 -20 24 -44q0 -8 -8 -24 q-112 -174 -322 -196l-66 -106q20 6 42 6q74 0 124 -49t50 -131q0 -94 -69 -149t-177 -55q-110 0 -172 52q-12 20 -11 29t11 27l18 42q12 26 34 26q12 0 22 -8q46 -32 88 -32q46 0 71 20t25 60q0 36 -25 57t-69 21q-16 0 -30 -5t-29 -12t-19 -7q-16 -6 -29 9t-5 29l88 180 q-182 24 -303 161t-121 329z" />
<glyph unicode="&#xe8;" horiz-adv-x="1046" d="M74 474q0 98 35 189t97 157t152 106t192 40q184 0 310 -124t126 -314q0 -32 -6 -62q0 -16 -14 -29t-30 -13h-606q2 -90 68 -155t168 -65q116 0 202 70q16 14 34 14t28 -14l80 -106q12 -16 12 -30q0 -16 -16 -32q-152 -130 -354 -128q-208 0 -343 145t-135 351zM344 592 h384q-4 70 -55 117t-129 47q-84 0 -138 -45t-62 -119zM362 1270q0 12 6 24l58 104q8 14 26 16q16 0 28 -10l336 -198q16 -8 16 -24q0 -6 -4 -14l-38 -74q-8 -18 -26 -18q-8 0 -24 6l-360 158q-18 12 -18 30z" />
<glyph unicode="&#xe9;" horiz-adv-x="1046" d="M74 474q0 98 35 189t97 157t152 106t192 40q184 0 310 -124t126 -314q0 -32 -6 -62q0 -16 -14 -29t-30 -13h-606q2 -90 68 -155t168 -65q116 0 202 70q16 14 34 14t28 -14l80 -106q12 -16 12 -30q0 -16 -16 -32q-152 -130 -354 -128q-208 0 -343 145t-135 351zM338 1180 q0 14 16 26l334 198q12 8 26 10q18 0 28 -16l58 -104q6 -12 8 -24q0 -20 -20 -30l-358 -158q-16 -6 -24 -6q-20 0 -28 18l-36 74q-4 8 -4 12zM344 592h384q-4 70 -55 117t-129 47q-84 0 -138 -45t-62 -119z" />
<glyph unicode="&#xea;" horiz-adv-x="1046" d="M74 474q0 98 35 189t97 157t152 106t192 40q184 0 310 -124t126 -314q0 -32 -6 -62q0 -16 -14 -29t-30 -13h-606q2 -90 68 -155t168 -65q116 0 202 70q16 14 34 14t28 -14l80 -106q12 -16 12 -30q0 -16 -16 -32q-152 -130 -354 -128q-208 0 -343 145t-135 351zM248 1172 q0 14 16 26l266 206q12 8 20 10q6 0 24 -10l266 -206q16 -12 16 -26q0 -8 -4 -12l-54 -76q-8 -14 -22 -14q-12 0 -24 8l-200 124l-200 -124q-12 -8 -24 -8q-14 0 -22 14l-54 76q-4 8 -4 12zM344 592h384q-4 70 -55 117t-129 47q-84 0 -138 -45t-62 -119z" />
<glyph unicode="&#xeb;" horiz-adv-x="1046" d="M74 474q0 98 35 189t97 157t152 106t192 40q184 0 310 -124t126 -314q0 -32 -6 -62q0 -16 -14 -29t-30 -13h-606q2 -90 68 -155t168 -65q116 0 202 70q16 14 34 14t28 -14l80 -106q12 -16 12 -30q0 -16 -16 -32q-152 -130 -354 -128q-208 0 -343 145t-135 351zM202 1260 q0 64 42 105t106 41t106 -41t42 -105t-42 -107t-106 -43q-62 0 -105 43t-43 107zM344 592h384q-4 70 -55 117t-129 47q-84 0 -138 -45t-62 -119zM614 1260q0 64 42 105t106 41t106 -41t42 -105t-42 -107t-106 -43q-62 0 -105 43t-43 107z" />
<glyph unicode="&#xec;" horiz-adv-x="518" d="M50 1270q0 12 6 24l58 104q8 14 26 16q16 0 28 -10l336 -198q16 -8 16 -24q0 -6 -4 -14l-38 -74q-8 -18 -26 -18q-8 0 -24 6l-360 158q-18 12 -18 30zM132 46v856q0 20 14 32t30 12h166q16 0 31 -12t15 -32v-856q0 -18 -14 -32t-32 -14h-166q-16 0 -30 14t-14 32z" />
<glyph unicode="&#xed;" horiz-adv-x="518" d="M44 1180q0 14 16 26l334 198q12 8 26 10q18 0 28 -16l58 -104q6 -12 8 -24q0 -20 -20 -30l-358 -158q-16 -6 -24 -6q-20 0 -28 18l-36 74q-4 8 -4 12zM132 46v856q0 20 14 32t30 12h166q16 0 31 -12t15 -32v-856q0 -18 -14 -32t-32 -14h-166q-16 0 -30 14t-14 32z" />
<glyph unicode="&#xee;" horiz-adv-x="518" d="M-28 1172q0 14 16 26l266 206q12 8 20 10q6 0 24 -10l266 -206q16 -12 16 -26q0 -8 -4 -12l-54 -76q-8 -14 -22 -14q-12 0 -24 8l-200 124l-200 -124q-12 -8 -24 -8q-14 0 -22 14l-54 76q-4 8 -4 12zM132 46v856q0 20 14 32t30 12h166q16 0 31 -12t15 -32v-856 q0 -18 -14 -32t-32 -14h-166q-16 0 -30 14t-14 32z" />
<glyph unicode="&#xef;" horiz-adv-x="518" d="M-82 1260q0 64 42 105t106 41t106 -41t42 -105t-42 -107t-106 -43q-62 0 -105 43t-43 107zM132 46v856q0 20 14 32t30 12h166q16 0 31 -12t15 -32v-856q0 -18 -14 -32t-32 -14h-166q-16 0 -30 14t-14 32zM330 1260q0 64 42 105t106 41t106 -41t42 -105t-42 -107t-106 -43 q-62 0 -105 43t-43 107z" />
<glyph unicode="&#xf0;" horiz-adv-x="1144" d="M76 462q0 108 38 198t99 145t137 85t156 30q68 0 138 -20t102 -40q-44 152 -222 278l-170 -98q-14 -8 -29 -4t-23 16l-16 28q-8 12 -4 29t18 23l122 70q-70 40 -140 64q-44 14 -42 42q0 6 4 20l48 124q8 30 42 30q12 0 18 -2q154 -60 290 -148l144 84q16 8 32 3t24 -21 l14 -22q8 -16 4 -32t-16 -24l-110 -62q322 -270 320 -696q0 -120 -32 -225t-94 -185t-159 -126t-217 -46q-96 0 -184 39t-152 102t-102 153t-38 188zM314 466q0 -100 70 -173t172 -73q82 0 138 48t81 117t25 145q-20 70 -84 126t-158 56q-102 0 -173 -72t-71 -174z" />
<glyph unicode="&#xf1;" horiz-adv-x="1132" d="M132 46v856q0 20 14 32t30 12h78q28 0 38 -28l36 -88q16 16 28 29t41 36t60 36t78 24t97 11q378 0 380 -432v-488q0 -18 -14 -32t-32 -14h-166q-18 0 -31 13t-13 33v488q0 198 -164 200q-82 0 -133 -43t-71 -105v-540q0 -24 -14 -35t-46 -11h-152q-16 0 -30 14t-14 32z M280 1226q0 10 2 16q90 172 212 172q36 0 69 -18t53 -39t47 -39t51 -18q20 0 37 15t27 32t22 31t24 14t22 -8l58 -40q14 -14 14 -30t-12 -34q0 -2 -4 -8q-14 -24 -26 -42t-38 -46t-59 -44t-71 -16q-36 0 -70 18t-57 40t-49 40t-48 18q-20 0 -37 -16t-27 -34t-22 -33t-24 -15 q-8 0 -20 8l-60 44q-14 12 -14 32z" />
<glyph unicode="&#xf2;" horiz-adv-x="1114" d="M74 476q0 132 64 244t176 179t244 67t244 -67t176 -180t64 -243q0 -134 -64 -249t-177 -182t-243 -67q-132 0 -244 67t-176 182t-64 249zM312 476q0 -110 71 -188t175 -78q102 0 174 77t72 189q0 106 -72 182t-174 76t-174 -76t-72 -182zM330 1270q0 12 6 24l58 104 q8 14 26 16q16 0 28 -10l336 -198q16 -8 16 -24q0 -6 -4 -14l-38 -74q-8 -18 -26 -18q-8 0 -24 6l-360 158q-18 12 -18 30z" />
<glyph unicode="&#xf3;" horiz-adv-x="1114" d="M74 476q0 132 64 244t176 179t244 67t244 -67t176 -180t64 -243q0 -134 -64 -249t-177 -182t-243 -67q-132 0 -244 67t-176 182t-64 249zM312 476q0 -110 71 -188t175 -78q102 0 174 77t72 189q0 106 -72 182t-174 76t-174 -76t-72 -182zM326 1180q0 14 16 26l334 198 q12 8 26 10q18 0 28 -16l58 -104q6 -12 8 -24q0 -20 -20 -30l-358 -158q-16 -6 -24 -6q-20 0 -28 18l-36 74q-4 8 -4 12z" />
<glyph unicode="&#xf4;" horiz-adv-x="1114" d="M74 476q0 132 64 244t176 179t244 67t244 -67t176 -180t64 -243q0 -134 -64 -249t-177 -182t-243 -67q-132 0 -244 67t-176 182t-64 249zM254 1172q0 14 16 26l266 206q12 8 20 10q6 0 24 -10l266 -206q16 -12 16 -26q0 -8 -4 -12l-54 -76q-8 -14 -22 -14q-12 0 -24 8 l-200 124l-200 -124q-12 -8 -24 -8q-14 0 -22 14l-54 76q-4 8 -4 12zM312 476q0 -110 71 -188t175 -78q102 0 174 77t72 189q0 106 -72 182t-174 76t-174 -76t-72 -182z" />
<glyph unicode="&#xf5;" horiz-adv-x="1114" d="M74 476q0 132 64 244t176 179t244 67t244 -67t176 -180t64 -243q0 -134 -64 -249t-177 -182t-243 -67q-132 0 -244 67t-176 182t-64 249zM240 1226q0 10 2 16q90 172 212 172q36 0 69 -18t53 -39t47 -39t51 -18q20 0 37 15t27 32t22 31t24 14t22 -8l58 -40q14 -14 14 -30 t-12 -34q0 -2 -4 -8q-14 -24 -26 -42t-38 -46t-59 -44t-71 -16q-36 0 -70 18t-57 40t-49 40t-48 18q-20 0 -37 -16t-27 -34t-22 -33t-24 -15q-8 0 -20 8l-60 44q-14 12 -14 32zM312 476q0 -110 71 -188t175 -78q102 0 174 77t72 189q0 106 -72 182t-174 76t-174 -76 t-72 -182z" />
<glyph unicode="&#xf6;" horiz-adv-x="1114" d="M74 476q0 132 64 244t176 179t244 67t244 -67t176 -180t64 -243q0 -134 -64 -249t-177 -182t-243 -67q-132 0 -244 67t-176 182t-64 249zM204 1260q0 64 42 105t106 41t106 -41t42 -105t-42 -107t-106 -43q-62 0 -105 43t-43 107zM312 476q0 -110 71 -188t175 -78 q102 0 174 77t72 189q0 106 -72 182t-174 76t-174 -76t-72 -182zM616 1260q0 64 42 105t106 41t106 -41t42 -105t-42 -107t-106 -43q-62 0 -105 43t-43 107z" />
<glyph unicode="&#xf7;" d="M172 652v114q0 16 12 27t26 11h808q16 0 26 -12t10 -26v-114q0 -16 -11 -28t-25 -12h-808q-16 0 -27 12t-11 28zM466 1106q0 58 41 100t101 42t101 -42t40 -99t-41 -101q-40 -40 -100 -42q-60 0 -101 42t-41 100zM467 329q-1 57 40 97t99 40t100 -40t42 -98t-42 -100 t-100 -42q-58 2 -98 42q-40 44 -41 101z" />
<glyph unicode="&#xf8;" horiz-adv-x="1114" d="M74 476q0 132 64 244t176 179t244 67q176 0 314 -118l32 30q8 12 28 12q16 0 28 -12l24 -22q14 -14 14 -28q0 -16 -14 -32l-36 -34q94 -132 94 -286q0 -134 -64 -249t-177 -182t-243 -67q-156 0 -286 96l-44 -46q-10 -10 -30 -10t-32 12l-20 24q-14 18 -14 32t12 26 l42 44q-112 144 -112 320zM312 476q0 -80 42 -150l352 354q-66 54 -148 54q-102 0 -174 -76t-72 -182zM438 244q56 -32 120 -34q102 0 174 78t72 188q0 58 -26 114z" />
<glyph unicode="&#xf9;" horiz-adv-x="1090" d="M120 400v502q0 20 14 32t32 12h166q18 0 31 -12t13 -32v-502q0 -96 37 -143t123 -47q72 0 114 53t54 125v514q0 26 10 35t42 9h160q18 0 31 -12t13 -32v-856q0 -18 -13 -32t-31 -14h-74q-32 0 -46 34l-26 80q-132 -138 -292 -136q-106 0 -179 31t-110 91t-53 131t-16 169 zM306 1270q0 12 6 24l58 104q8 14 26 16q16 0 28 -10l336 -198q16 -8 16 -24q0 -6 -4 -14l-38 -74q-8 -18 -26 -18q-8 0 -24 6l-360 158q-18 12 -18 30z" />
<glyph unicode="&#xfa;" horiz-adv-x="1090" d="M120 400v502q0 20 14 32t32 12h166q18 0 31 -12t13 -32v-502q0 -96 37 -143t123 -47q72 0 114 53t54 125v514q0 26 10 35t42 9h160q18 0 31 -12t13 -32v-856q0 -18 -13 -32t-31 -14h-74q-32 0 -46 34l-26 80q-132 -138 -292 -136q-106 0 -179 31t-110 91t-53 131t-16 169 zM302 1180q0 14 16 26l334 198q12 8 26 10q18 0 28 -16l58 -104q6 -12 8 -24q0 -20 -20 -30l-358 -158q-16 -6 -24 -6q-20 0 -28 18l-36 74q-4 8 -4 12z" />
<glyph unicode="&#xfb;" horiz-adv-x="1090" d="M120 400v502q0 20 14 32t32 12h166q18 0 31 -12t13 -32v-502q0 -96 37 -143t123 -47q72 0 114 53t54 125v514q0 26 10 35t42 9h160q18 0 31 -12t13 -32v-856q0 -18 -13 -32t-31 -14h-74q-32 0 -46 34l-26 80q-132 -138 -292 -136q-106 0 -179 31t-110 91t-53 131t-16 169 zM240 1172q0 14 16 26l266 206q12 8 20 10q6 0 24 -10l266 -206q16 -12 16 -26q0 -8 -4 -12l-54 -76q-8 -14 -22 -14q-12 0 -24 8l-200 124l-200 -124q-12 -8 -24 -8q-14 0 -22 14l-54 76q-4 8 -4 12z" />
<glyph unicode="&#xfc;" horiz-adv-x="1090" d="M120 400v502q0 20 14 32t32 12h166q18 0 31 -12t13 -32v-502q0 -96 37 -143t123 -47q72 0 114 53t54 125v514q0 26 10 35t42 9h160q18 0 31 -12t13 -32v-856q0 -18 -13 -32t-31 -14h-74q-32 0 -46 34l-26 80q-132 -138 -292 -136q-106 0 -179 31t-110 91t-53 131t-16 169 zM186 1260q0 64 42 105t106 41t106 -41t42 -105t-42 -107t-106 -43q-62 0 -105 43t-43 107zM598 1260q0 64 42 105t106 41t106 -41t42 -105t-42 -107t-106 -43q-62 0 -105 43t-43 107z" />
<glyph unicode="&#xfd;" horiz-adv-x="1020" d="M38 906q0 16 13 28t33 12h196q32 0 40 -26l170 -566h4l216 566q4 14 16 20t42 6h174q20 0 33 -10t13 -28q0 -14 -4 -24l-558 -1342q-12 -28 -40 -30h-198q-20 0 -32 13t-12 29q0 14 4 22l190 480l-294 828q-4 16 -6 22zM322 1180q0 14 16 26l334 198q12 8 26 10 q18 0 28 -16l58 -104q6 -12 8 -24q0 -20 -20 -30l-358 -158q-16 -6 -24 -6q-20 0 -28 18l-36 74q-4 8 -4 12z" />
<glyph unicode="&#xfe;" horiz-adv-x="1158" d="M132 -442v1830q0 16 14 31t30 15h166q18 0 32 -15t14 -31v-486q32 24 103 44t143 20q126 0 231 -67t163 -180t58 -245q0 -210 -136 -353t-338 -143q-58 0 -126 16t-98 36v-472q0 -18 -14 -32t-32 -14h-166q-16 0 -30 14t-14 32zM388 264q28 -20 83 -37t113 -17 q110 0 173 77t63 184t-60 185t-164 78q-70 0 -129 -40t-79 -80v-350z" />
<glyph unicode="&#xff;" horiz-adv-x="1020" d="M38 906q0 16 13 28t33 12h196q32 0 40 -26l170 -566h4l216 566q4 14 16 20t42 6h174q20 0 33 -10t13 -28q0 -14 -4 -24l-558 -1342q-12 -28 -40 -30h-198q-20 0 -32 13t-12 29q0 14 4 22l190 480l-294 828q-4 16 -6 22zM174 1260q0 64 42 105t106 41t106 -41t42 -105 t-42 -107t-106 -43q-62 0 -105 43t-43 107zM586 1260q0 64 42 105t106 41t106 -41t42 -105t-42 -107t-106 -43q-62 0 -105 43t-43 107z" />
<glyph unicode="&#x152;" horiz-adv-x="1990" d="M90 715q0 203 98 373t267 268t371 98q112 0 198 -20h834q16 0 27 -12t11 -28v-168q0 -16 -11 -27t-27 -11h-606v-336h506q16 0 27 -12t11 -26v-170q0 -16 -11 -28t-27 -12h-506v-358h606q16 0 27 -12t11 -28v-168q0 -16 -11 -27t-27 -11h-834q-114 -20 -198 -20 q-200 0 -370 98t-268 266t-98 371zM356 715q0 -127 64 -237t172 -173t234 -63q94 0 160 26v896q-80 28 -160 28q-126 0 -234 -66t-172 -175t-64 -236z" />
<glyph unicode="&#x153;" horiz-adv-x="1738" d="M74 478q0 132 64 244t176 178t244 66q98 0 188 -39t156 -107q132 148 334 146q118 0 219 -55t162 -156t61 -229q0 -32 -4 -62q0 -16 -15 -28t-31 -12h-604q4 -94 71 -157t165 -63q56 0 113 20t89 50q14 14 34 14q16 0 28 -14l80 -104q12 -16 12 -34t-14 -28 q-60 -58 -153 -94t-201 -36h-8q-210 4 -342 146q-66 -70 -154 -108t-186 -38q-132 0 -244 68t-176 183t-64 249zM312 476q0 -110 71 -188t175 -78q102 0 174 77t72 189q0 106 -72 182t-174 76t-174 -76t-72 -182zM1038 592h384q-4 70 -56 117t-126 47q-84 0 -139 -45 t-63 -119z" />
<glyph unicode="&#x178;" horiz-adv-x="1214" d="M0 1396q0 16 10 27t28 11h210q18 0 32 -18l328 -472l328 472q14 18 32 18h212q18 0 28 -10t10 -28q0 -12 -6 -22l-472 -682v-654q0 -16 -12 -27t-28 -11h-188q-16 0 -27 11t-11 27v652l-468 684q-6 8 -6 22zM206 1718q0 64 42 106t106 42t106 -42t42 -106t-42 -107 t-106 -43q-62 0 -105 43t-43 107zM712 1718q0 64 42 106t106 42t106 -42t42 -106t-42 -107t-106 -43q-62 0 -105 43t-43 107z" />
<glyph unicode="&#x2c6;" horiz-adv-x="762" d="M72 1172q0 14 16 26l266 206q12 8 20 10q6 0 24 -10l266 -206q16 -12 16 -26q0 -8 -4 -12l-54 -76q-8 -14 -22 -14q-12 0 -24 8l-200 124l-200 -124q-12 -8 -24 -8q-14 0 -22 14l-54 76q-4 8 -4 12z" />
<glyph unicode="&#x2dc;" horiz-adv-x="778" d="M70 1226q0 10 2 16q90 172 212 172q36 0 69 -18t53 -39t47 -39t51 -18q20 0 37 15t27 32t22 31t24 14t22 -8l58 -40q14 -14 14 -30t-12 -34q0 -2 -4 -8q-14 -24 -26 -42t-38 -46t-59 -44t-71 -16q-36 0 -70 18t-57 40t-49 40t-48 18q-20 0 -37 -16t-27 -34t-22 -33 t-24 -15q-8 0 -20 8l-60 44q-14 12 -14 32z" />
<glyph unicode="&#x2000;" horiz-adv-x="1004" />
<glyph unicode="&#x2001;" horiz-adv-x="2008" />
<glyph unicode="&#x2002;" horiz-adv-x="1004" />
<glyph unicode="&#x2003;" horiz-adv-x="2008" />
<glyph unicode="&#x2004;" horiz-adv-x="669" />
<glyph unicode="&#x2005;" horiz-adv-x="502" />
<glyph unicode="&#x2006;" horiz-adv-x="334" />
<glyph unicode="&#x2007;" horiz-adv-x="334" />
<glyph unicode="&#x2008;" horiz-adv-x="251" />
<glyph unicode="&#x2009;" horiz-adv-x="401" />
<glyph unicode="&#x200a;" horiz-adv-x="111" />
<glyph unicode="&#x2010;" horiz-adv-x="758" d="M112 430v138q0 16 12 27t28 11h456q16 0 28 -11t12 -27v-138q0 -16 -12 -26t-28 -10h-456q-16 0 -28 10t-12 26z" />
<glyph unicode="&#x2011;" horiz-adv-x="758" d="M112 430v138q0 16 12 27t28 11h456q16 0 28 -11t12 -27v-138q0 -16 -12 -26t-28 -10h-456q-16 0 -28 10t-12 26z" />
<glyph unicode="&#x2012;" horiz-adv-x="758" d="M112 430v138q0 16 12 27t28 11h456q16 0 28 -11t12 -27v-138q0 -16 -12 -26t-28 -10h-456q-16 0 -28 10t-12 26z" />
<glyph unicode="&#x2013;" horiz-adv-x="1120" d="M116 466v76q0 16 12 28t28 12h808q16 0 28 -11t12 -29v-76q0 -16 -12 -26t-28 -10h-808q-16 0 -28 10t-12 26z" />
<glyph unicode="&#x2014;" horiz-adv-x="1570" d="M116 466v76q0 16 12 28t28 12h1260q16 0 27 -11t11 -29v-76q0 -16 -11 -26t-27 -10h-1260q-16 0 -28 10t-12 26z" />
<glyph unicode="&#x2018;" horiz-adv-x="492" d="M82 1036q0 206 148 404q8 10 20 10q14 0 22 -8l58 -42q20 -16 -2 -46q-102 -134 -102 -250q0 -14 4 -40q30 20 70 22q60 0 93 -41t33 -103q0 -66 -45 -108t-115 -42q-78 0 -131 65t-53 179z" />
<glyph unicode="&#x2019;" horiz-adv-x="484" d="M64 1304q0 66 46 108t114 42q78 0 131 -64t53 -180q0 -206 -148 -404q-8 -10 -18 -10q-12 0 -24 8l-58 42q-20 16 2 46q102 134 102 250q0 14 -4 40q-30 -20 -70 -20q-60 0 -93 40t-33 102z" />
<glyph unicode="&#x201a;" horiz-adv-x="512" d="M84 144q0 66 46 107t114 41q78 0 131 -64t53 -178q0 -206 -148 -404q-8 -10 -18 -10q-12 0 -24 8l-58 40q-20 16 2 48q102 134 102 250q0 14 -4 38q-30 -20 -70 -20q-60 0 -93 41t-33 103z" />
<glyph unicode="&#x201c;" horiz-adv-x="928" d="M82 1036q0 206 148 404q8 10 20 10q14 0 22 -8l58 -42q20 -16 -2 -46q-102 -134 -102 -250q0 -14 4 -40q30 20 70 22q60 0 93 -41t33 -103q0 -66 -45 -108t-115 -42q-78 0 -131 65t-53 179zM518 1036q0 206 148 404q8 10 20 10q14 0 22 -8l58 -42q20 -16 -2 -46 q-102 -134 -102 -250q0 -14 4 -40q30 20 70 22q60 0 93 -41t33 -103q0 -66 -45 -108t-115 -42q-78 0 -131 65t-53 179z" />
<glyph unicode="&#x201d;" horiz-adv-x="920" d="M64 1304q0 66 46 108t114 42q78 0 131 -64t53 -180q0 -206 -148 -404q-8 -10 -18 -10q-12 0 -24 8l-58 42q-20 16 2 46q102 134 102 250q0 14 -4 40q-30 -20 -70 -20q-60 0 -93 40t-33 102zM500 1304q0 66 46 108t114 42q78 0 131 -64t53 -180q0 -206 -148 -404 q-8 -10 -18 -10q-12 0 -24 8l-58 42q-20 16 2 46q102 134 102 250q0 14 -4 40q-30 -20 -70 -20q-60 0 -93 40t-33 102z" />
<glyph unicode="&#x201e;" horiz-adv-x="948" d="M84 144q0 66 46 107t114 41q78 0 131 -64t53 -178q0 -206 -148 -404q-8 -10 -18 -10q-12 0 -24 8l-58 40q-20 16 2 48q102 134 102 250q0 14 -4 38q-30 -20 -70 -20q-60 0 -93 41t-33 103zM520 144q0 66 46 107t114 41q78 0 131 -64t53 -178q0 -206 -148 -404 q-8 -10 -18 -10q-12 0 -24 8l-58 40q-20 16 2 48q102 134 102 250q0 14 -4 38q-30 -20 -70 -20q-60 0 -93 41t-33 103z" />
<glyph unicode="&#x2022;" horiz-adv-x="798" d="M132 520q0 110 78 191t186 81q112 0 192 -80t80 -192q0 -106 -81 -185t-191 -79q-106 0 -185 79t-79 185z" />
<glyph unicode="&#x2026;" horiz-adv-x="1342" d="M84 127q0 61 42 104t104 43t105 -43t43 -104t-43 -104t-105 -43q-60 0 -103 43t-43 104zM528 127q0 61 43 104t103 43q62 0 106 -43t44 -104t-44 -104t-106 -43q-60 0 -103 43t-43 104zM964 127q0 61 43 104t105 43t105 -43t43 -104t-43 -104t-105 -43q-60 -2 -104 42 t-44 105z" />
<glyph unicode="&#x202f;" horiz-adv-x="401" />
<glyph unicode="&#x2039;" horiz-adv-x="586" d="M72 483q0 13 8 25l224 304q14 24 36 24h116q18 0 29 -10t11 -26q0 -8 -8 -28l-140 -284l134 -302q6 -16 6 -26q0 -34 -38 -36h-126q-20 2 -32 18l-212 316q-8 12 -8 25z" />
<glyph unicode="&#x203a;" horiz-adv-x="586" d="M90 800q0 16 10 26t30 10h116q22 0 36 -24l224 -304q8 -12 8 -24t-8 -26l-214 -316q-12 -16 -30 -18h-126q-36 0 -38 36q0 12 6 26l134 302l-140 284q-8 20 -8 28z" />
<glyph unicode="&#x205f;" horiz-adv-x="502" />
<glyph unicode="&#x20ac;" d="M70 550v28q0 16 10 27t26 11h78q-4 30 -4 98v42h-74q-16 0 -26 11t-10 27v30q0 16 10 27t26 11h84q16 122 61 228t115 188t169 129t221 47q234 0 392 -170q14 -18 16 -30q0 -14 -14 -28l-104 -144q-12 -12 -28 -12q-14 0 -26 12q-98 116 -230 116q-106 0 -181 -91 t-101 -245h404q16 0 28 -11t12 -27v-32q0 -16 -11 -26t-29 -10h-416v-36q0 -72 6 -104h328q16 0 28 -11t12 -27v-30q0 -16 -11 -26t-29 -10h-310q30 -122 99 -193t173 -71q46 0 86 14t60 28t54 42q6 6 10 8q28 22 52 0l108 -138q12 -12 10 -27t-12 -27q-94 -86 -184 -128 t-192 -42q-222 0 -368 145t-190 389h-92q-16 0 -26 12t-10 26z" />
<glyph unicode="&#x2122;" horiz-adv-x="1596" d="M148 1320v74q0 16 12 28t26 12h420q16 0 28 -12t12 -28v-74q0 -16 -12 -27t-28 -11h-130v-454q0 -16 -13 -28t-27 -12h-80q-16 0 -27 12t-11 28v454h-132q-16 0 -27 11t-11 27zM712 836l108 578q4 30 38 30h8q24 0 36 -22l178 -380l182 380q8 22 34 22h8q16 0 27 -9 t13 -21l108 -580q4 -18 -8 -32t-30 -14h-80q-12 0 -24 10t-16 26l-44 256l-132 -280q-8 -18 -32 -18h-12q-24 0 -36 20l-124 278l-50 -258q0 -12 -13 -23t-25 -11h-74q-20 0 -32 15t-8 33z" />
<glyph unicode="&#xe000;" horiz-adv-x="950" d="M0 0v950h950v-950h-950z" />
</font>
</defs>
</svg>
